<svg width="520" height="520" xmlns="http://www.w3.org/2000/svg">
 <style>.st0{fill:#fff}</style>

 <g>
  <title>background</title>
  <rect fill="none" id="canvas_background" height="522" width="522" y="-1" x="-1"/>
 </g>
 <g>
  <title>Layer 1</title>
  <path id="svg_1" d="m119.6,124.3c-22.7,1.8 -75.6,-10 -74.9,27.3c-0.5,21.4 -4.3,59.7 27.3,59.2c22.7,-1.7 75.5,10 74.8,-27.3c0.5,-21.3 4.3,-59.7 -27.2,-59.2zm7.2,59.2c1.6,14.2 -48.4,4.7 -54.8,7.3c-13.2,0.9 -5.3,-32.7 -7.3,-39.2c-1.6,-14.2 48.4,-4.7 54.8,-7.3c13.2,-0.9 5.3,32.7 7.3,39.2zm117.5,-30.9c-22.5,2.6 -80.6,-11.7 -79.7,26.6c-0.1,21.1 -5.1,60.5 26.6,59.9c22.5,-2.5 80.6,11.7 79.7,-26.6c0.2,-21 5,-60.4 -26.6,-59.9zm-110.9,90.8c2.1,12.9 -54.2,4.2 -59.7,6.6c-12.3,1 -4.5,-34 -6.6,-39.9c-2.1,-12.9 54.2,-4.2 59.7,-6.6c12.3,-1 4.5,34 6.6,39.9z" class="st0"/>
  <path id="svg_2" d="m519.9,327.2c0.5,-31.4 -40.5,-24.4 -60.7,-24.9l0,-79c0.5,-37.1 -44.5,-32.7 -69.7,-32.1l0,-95.4c0,-26.4 -21.5,-47.8 -47.8,-47.8l-285.9,0c-26.3,0 -47.8,21.4 -47.8,47.8c14,185.6 -63.7,240.3 154,226.4l-8.1,43.5l-26.4,0c-12.9,-0.2 -13,20.2 0,20l142.3,0c12.9,0.2 13,-20.2 0,-20l-26.4,0l-8.1,-43.5l50.8,0c4.9,28 -17.7,112.5 32.1,111.1l86.8,0l0,31.7c-1.3,39.2 68.3,21 89.9,24.9c44.3,-7.6 18.6,-61.6 25,-162.7zm-94.8,26.3l74.8,0l0,9.9c-19.8,-0.3 -56.3,-4.5 -55.8,25.1c-4.7,44 21.7,42 55.8,40.9l0,9.5c-103.6,1.6 -69.3,9.4 -74.8,-85.4zm74.8,55.9c-4.6,-1.8 -36.7,4.7 -35.8,-5.1c1.1,-4.5 -3.4,-21.2 5.1,-20.9c34.4,2.5 31.1,-11.4 30.7,26zm0,-82.2l0,6.3l-74.8,0c0.2,-7.1 -1.1,-10.1 4.9,-11.2c3.6,2.1 72.9,-5.2 69.9,4.9zm-69.9,-24.9c-34.1,-0.8 -23.3,48.2 -24.9,68.9c-142.2,2.1 -89.4,11.9 -98.9,-117.7l133,0l0,48.9c-0.2,-0.1 -9.3,-0.1 -9.2,-0.1zm79.1,-54.1l0,10.1l-133,0c-0.7,-9 0,-22.4 12.1,-22.2c10.3,4.6 125.2,-11.9 120.9,12.1zm-453.3,-180.2l285.8,0c14,0 25.5,10.3 27.5,23.7c-9,1.7 -36.1,-5.8 -35.8,10c-0.5,15.7 27.4,8.4 36.1,10l0,79.5c-26.5,1.2 -84,-10.1 -83.3,32.1l0,35.3l-258.1,0c-3.8,-216.9 -22,-130.4 235.4,-146.9c69.7,-37.8 -239.3,-13.7 -235.1,-20c2,-13.4 13.6,-23.7 27.5,-23.7zm620.6,478l-48.8,0c12.2,-47.2 -6.8,-44.3 40.8,-43.5l8,43.5zm-620.6,-243.7c-14,0 -25.5,-10.3 -27.5,-23.7l257.9,0l0,23.7l-230.4,0zm883.1,354.8c-12.1,0.2 -12.9,-13.2 -12.1,-22.2l98.9,0l0,22.2l-86.8,0zm-443.9,-187.1c-3.6,-2.1 -72.9,5.2 -69.9,-4.9l0,-6.3l74.8,0c0,3.9 1,11.3 -4.9,11.2z" class="st0"/>
  <path id="svg_3" d="m303.4,111.7c13,0.2 13,-20.2 0,-20c-13,-0.2 -13,20.2 0,20zm69.2,152.6c-19.2,0.4 -58.1,-6.1 -57.6,23.8c-1,18.2 -1.9,48 23.8,47.6c19.2,-0.4 58.1,6.1 57.6,-23.8c1,-18.2 1.9,-48 -23.8,-47.6zm3.8,47.6c1.3,7.7 -34.4,2.2 -37.6,3.8c-7.4,0.8 -2.5,-24.3 -3.8,-27.6c-1.3,-7.7 34.4,-2.2 37.6,-3.8c7.4,-0.8 2.5,24.3 3.8,27.6z" class="st0"/>
 </g>
</svg>