<svg version="1.1" id="Capa_1" xmlns="http://www.w3.org/2000/svg" x="0" y="0" viewBox="0 0 512 512" xml:space="preserve"><style>.st0{fill:#fff}</style><path class="st0" d="M472.5 0h-433C23.9 0 11.2 12.7 11.2 28.3v455.4c0 15.6 12.7 28.3 28.3 28.3h243.6c4.1 0 7.5-3.4 7.5-7.5s-3.4-7.5-7.5-7.5H39.5c-7.3 0-13.3-6-13.3-13.3V28.3c0-7.3 6-13.3 13.3-13.3h433c7.3 0 13.3 6 13.3 13.3v455.4c0 7.3-6 13.3-13.3 13.3H318.1c-4.1 0-7.5 3.4-7.5 7.5s3.4 7.5 7.5 7.5h154.4c15.6 0 28.3-12.7 28.3-28.3V28.3c0-15.6-12.7-28.3-28.3-28.3z"/><path class="st0" d="M457.4 438.2V73.8c0-15.6-12.7-28.3-28.3-28.3H82.9c-15.6 0-28.3 12.7-28.3 28.3v364.4c0 15.6 12.7 28.3 28.3 28.3H429c15.7 0 28.4-12.7 28.4-28.3zm-387.8 0V73.8c0-7.3 6-13.3 13.3-13.3H429c7.3 0 13.3 6 13.3 13.3v364.4c0 7.3-6 13.3-13.3 13.3H82.9c-7.3 0-13.3-6-13.3-13.3z"/><path class="st0" d="M247 154.3c-15.8-15.4-36.7-23.9-58.6-23.9h-54.2c-7.5 0-14.2 2.8-19.5 8.1-5.3 5.3-8 12-8 19.5v79.8c0 4.1 3.4 7.5 7.5 7.5s7.5-3.4 7.5-7.5V158c0-3.5 1.2-6.4 3.7-8.9s5.4-3.7 8.9-3.7h54.2c18 0 35.1 7 48.1 19.7 13.2 12.8 20.4 29.8 20.4 47.8s-7.3 35-20.4 47.8c-13 12.7-30.1 19.7-48.1 19.7-8 0-23 .1-34.2.1-4.1 0-7.5 3.4-7.5 7.5v64.6c0 6.9-5.6 12.6-12.6 12.6-6.9 0-12.6-5.6-12.6-12.6v-79.8c0-4.1-3.4-7.5-7.5-7.5s-7.5 3.4-7.5 7.5v79.8c0 15.2 12.4 27.6 27.6 27.6 15.2 0 27.6-12.4 27.6-27.6v-57.2c9.7 0 20.4-.1 26.7-.1 22 0 42.8-8.5 58.6-23.9 16.1-15.7 25-36.5 25-58.6s-9-42.8-25.1-58.5z"/><path class="st0" d="M149.2 253.3c1.4 1.4 3.3 2.2 5.3 2.2 11.1-.1 25.9-.1 33.9-.1 23.6 0 43.5-19.4 43.5-42.4s-19.9-42.4-43.5-42.4h-34.1c-2 0-3.9.8-5.3 2.2-1.4 1.4-2.2 3.3-2.2 5.3 0 12.8.1 28.2.1 34.9 0 6.4 0 17.9.1 35.1 0 1.9.8 3.8 2.2 5.2zm39.2-67.8c15.4 0 28.5 12.5 28.5 27.4s-13 27.4-28.5 27.4c-6.3 0-16.8 0-26.4.1-.1-13-.1-22.1-.1-27.5 0-5.4 0-16.6-.1-27.4h26.6zM392.4 222.5c-6.4-5.2-15.1-9.5-23.9-11.7-22.2-5.7-46.6-2.5-65.3 8.6-11 6.6-18.9 15.3-22.6 25.3-6.5 17.3-3 37.4 8.7 49.9 11.6 12.4 27.7 19.3 41.9 24.9 3.3 1.3 6.7 2.5 10 3.7l1.1.4c1.5.6 2.7 1.1 3.7 1.7-1.6.6-4.2 1.3-8.4 1.6-7.2.6-13.4-1.4-19.8-6.4-11.6-9-27.3-9-37.3.1-5.8 5.2-9 12.7-9 20.5.1 8.2 4.1 16.1 11.4 22.4 2.7 2.3 5.8 4.4 9.6 6.4 14.3 7.6 30 11.7 44.7 11.7 1.8 0 3.6-.1 5.3-.2 12.3-.9 24.6-4.9 34.6-11.3 13.2-8.5 22.3-21.8 24.9-36.5 2.3-13-.6-26.2-8.3-37.2-7.3-10.5-18.3-18.5-32.7-23.8-6.5-2.4-12.8-4.9-17.9-7 5-1.4 11.1-.7 17.2 2.2l.4.2c5.3 2.5 11.3 5.3 18.1 5.7 7.1.4 13.7-2.2 18.8-7.3 4.6-4.7 7.3-11 7.7-17.7.6-9.8-3.8-18.8-12.9-26.2zm-2 25.2c-.2 3.1-1.5 6.1-3.5 8.1-1.4 1.4-3.7 3-7.1 2.8-3.9-.2-8.3-2.3-12.6-4.3l-.4-.2c-12.3-5.8-25-5.8-34.8 0l-.5.3c-3.3 1.9-8.8 5.1-9.6 10.8-.4 3.1.5 5.4 1.4 6.7.8 1.2 1.9 2.1 3.3 2.7 4.6 2 16.7 7.1 29.5 11.9 11.4 4.2 20 10.4 25.5 18.3 5.4 7.7 7.4 17 5.8 26-1.9 10.6-8.5 20.3-18.3 26.5-7.9 5.1-17.7 8.3-27.5 9-13.3.9-28.6-2.7-41.9-9.8-2.7-1.5-5-3-6.9-4.6-2.8-2.4-6.1-6.3-6.2-11.1 0-3.4 1.5-6.9 4-9.2 2.3-2.1 5-2.9 7.9-2.9 3.6 0 7.3 1.4 10.2 3.6 9.4 7.2 19.2 10.3 30.1 9.5 18.1-1.4 23.3-9.1 24.4-15.3 1.2-6.7-4.5-12.9-15.7-17l-1.1-.4c-3.2-1.2-6.5-2.4-9.7-3.7-12.7-4.9-27-11-36.4-21.1-7.8-8.3-10.1-22.5-5.6-34.4 3.2-8.5 10.6-14.3 16.2-17.6 15.3-9.1 35.5-11.7 53.9-7 10.3 2.7 26.3 11.1 25.6 22.4z"/></svg>