<svg version="1.1" id="Слой_1" xmlns="http://www.w3.org/2000/svg" x="0" y="0" viewBox="0 0 512 512" xml:space="preserve"><style>.st0{fill:#fff}</style><g id="Data_file"><path class="st0" d="M56 64c6.1.3 16.1.6 16-8 .1-8.6-9.9-8.4-16-8-10.4-.1-10.4 16.1 0 16zM96 64c6.1.3 16.1.6 16-8 .1-8.6-9.9-8.4-16-8-10.4-.1-10.4 16.1 0 16zM136 64c6.1.3 16.1.6 16-8 .1-8.6-9.9-8.4-16-8-10.4-.1-10.4 16.1 0 16z"/><path class="st0" d="M472 144h-40V40c0-13.3-10.7-24-24-24H40c-13.3 0-24 10.7-24 24v304c-.2 32.3 43.8 22.7 64 24v104c0 13.3 10.7 24 24 24h368c13.3 0 24-10.7 24-24V168c0-13.3-10.7-24-24-24zm8 24v40H96v-40c0-4.4 3.6-8 8-8h368c4.4 0 8 3.6 8 8zM40 32h368c4.4 0 8 3.6 8 8v40H32V40c0-4.4 3.6-8 8-8zm0 320c-18.6 4.9-3.3-249.9-8-256h384v48C16.6 160.8 85.1 62.4 80 352H40zm432 128H104c-4.4 0-8-3.6-8-8V224h384v248c0 4.4-3.6 8-8 8z"/><path class="st0" d="M128 176c-6.1-.3-16.1-.6-16 8-.1 8.6 9.9 8.4 16 8 10.4.1 10.4-16.1 0-16zM168 176c-6.1-.3-16.1-.6-16 8-.1 8.6 9.9 8.4 16 8 10.4.1 10.4-16.1 0-16zM208 176c-6.1-.3-16.1-.6-16 8-.1 8.6 9.9 8.4 16 8 10.4.1 10.4-16.1 0-16zM160 280h32c10.4.1 10.4-16.1 0-16h-32c-10.4-.1-10.4 16.1 0 16zM160 328h32c10.4.1 10.4-16.1 0-16h-32c-10.4-.1-10.4 16.1 0 16zM160 376h32c10.4.1 10.4-16.1 0-16h-32c-10.4-.1-10.4 16.1 0 16zM240 376h96c4.4 0 8-3.6 8-8s-3.6-8-8-8h-96c-10.3-.1-10.4 16.1 0 16zM240 328h32c10.4.1 10.4-16.1 0-16h-32c-10.4-.1-10.4 16.1 0 16zM336 328c10.4.1 10.4-16.1 0-16h-32c-10.4-.1-10.4 16.1 0 16h32zM416 312h-32c-10.4-.1-10.4 16.1 0 16h32c10.4.1 10.4-16.1 0-16zM416 360h-32c-10.4-.1-10.4 16.1 0 16h32c10.4.1 10.4-16.1 0-16zM416 264c-4 3.9-192.5-9.4-184 8 0 4.4 3.6 8 8 8h176c10.3.1 10.4-16.1 0-16zM416 408c-8.1 5-266.8-10.9-264 8-3.3 18.9 256.9 3.1 264 8 10.3.1 10.4-16.1 0-16z"/></g></svg>