<svg version="1.1" id="Layer_1" xmlns="http://www.w3.org/2000/svg" x="0" y="0" viewBox="0 0 512 512" xml:space="preserve"><style>.st1{fill:#36f}</style><g id="XMLID_3000_"><path id="XMLID_3010_" d="M150.4 0c7.1 53.6-36.9 97.6-90.5 90.5v165.9l98 14.7 98-14.7L271 128.2 256 0H150.4z" fill="#39c"/><path id="XMLID_3009_" class="st1" d="M452.1 90.5c-53.6 7.1-97.6-36.9-90.5-90.5H256v256.4l98 14.7 98-14.7c.1-4.7.1-161.2.1-165.9z"/><path id="XMLID_3008_" class="st1" d="M59.9 256.4C55 418.3 165.4 423.7 255.9 512L271 384.2l-15-127.8H59.9z"/><path id="XMLID_3006_" d="M340.7 448.4c69.9-26.4 120.7-127.5 111.4-191.9H256V512c24.6-25.9 52.5-48.7 84.7-63.6z" fill="#06c"/><path d="M353.5 289.2c-1.4 99.9-95.7 87.7-193.6 102.7l9.6-10.7c18.6-2.1 88-15.2 104.6-20.2 100.8-41.4 27.6-131.8-48.2-154.6 23-20.5 53.3-35.8 70.7-58.2-19.6-36.2-92.8-40.7-99.3 7.8h-2.2c-14-23.1-21.8-41-23.6-53.7l12.9 5.2c24.3-.3 141.1-4.3 166-2.6-17.9 8.7-21.1 36.7-14.4 53.4-3.1-1.6-52.1 24.2-51.9 28.4 49.6 26 54.9 46.8 69.4 102.5z" fill="#fff"/></g></svg>