<svg xmlns="http://www.w3.org/2000/svg" viewBox="0 0 512 512"><path d="M373.3 276l36.9-36.9c39.1 7.3 37.9-18.1-.9-15.6-66.9 49.9-30.4 54.2-96.9-8.3 68.3-51.6 18.9-64.4 61.3-113.1 84.7-50.4 46-6.7 9.4 25.6-6.2 3.2 8.9 47.5 9 52.4.1 8.2 45.8 13.9 50.8 16.6 6 4.5 49.3-46.3 53.7-48.6 2 26.6-12 53.7-35.3 67.2-8.3 51.7 73.3-47.7 47.7-84.9-7.7-24.2-59.2 49.2-66.7 50.6-40.4-8.2-37.2-5.8-45.5-45.5l54-54c4.1-3.9 2.1-11.4-3.4-12.7-59.1-17.7-121 38.3-108.8 98.8-5.5.9-37.8 49.5-42.7 31.1-26.6-8.6-19.9-3.7-42.3-27.3 4.6-4.3 7.8-10.1 8.2-16.4-19.6-42 52.6-80.9 93.4-104.8-4.5-50.7-118.5-31.6-147.6 6.5-22.8 31.3-24.9-4.6-49.6 16.2l-70.3 70.3c-4.9 13.1 13.6 26.6-4.8 41.1-14.3 18.3-28 0-41.1 4.8-1.4 7-52.4 40.8-39.6 50.3 7.7 1.3 88.4 101.2 97 86.3l39.6-39.6c5-4.8.6-9.9-2.4-14.2-9.7-17.9 21.5-46.8 37.6-31.6 7.7 7.9 17-7.6 22.2-11.6 35.9 28.6 12.8 28.7 33.1 48.1 1.9 3.3-122.4 106.1-71.3 92.7l77-77 5-5c23.6 5-50.2 57.8-49.9 63.6-12.9 12.5-.2 27.8 10.4 36.4 21.9 25.2 67.5-48.8 82.8-56.7 27.6 3.5-124.5 130.5-121.8 135.5-21.1 22.4-61.6 5.7-60.6-25-5.5-24.2 39.1-37.4 32-57.4-9-10-26.1 18.1-32.3 21.6-47.1 45.6 25.7 119 71.6 71.6 207.8-225.5 97.5-76.8 288.3 9.3 143.1-30.2-54.8-168.6-87.2-210.4zm-155-208.6C249.6 36.1 295.8 27 335 43.2c-37.8 20.5-74.3 54.8-92.6 81.3l-40.6-40.6 16.5-16.5zM93.9 309.6L18.3 234l28.8-28.8 75.6 75.6-28.8 28.8zm39.1-75.3c-6.5 6.5-10.8 14.6-12.5 22.7L71 207.6c17.1-3 33.7-20.5 35.5-37.7l51.6 51.6c-8.9 1.2-17.9 5.6-25.1 12.8zm47.8-11.6l-75.6-75.6c7.5-2.2 65.3-77.6 74.9-63.5 81.3 80.3 82.8 58.8.7 139.1zM207 218c32.6-25.6 25.7-52.5 60-11.7-36.3 29.8-25.3 50.8-60 11.7zm8.9 158.8c-45.4-5.9 36.7-59.9 41.7-71.7l15 15-56.7 56.7zm269.3 84.7C441.3 516.6 266 272.8 234.4 260.4l50.9-50.9c12.7 33 259.2 207.3 199.9 252z" fill="#fff"/></svg>