<svg version="1.1" id="Layer_1" xmlns="http://www.w3.org/2000/svg" x="0" y="0" viewBox="0 0 2500 2500" xml:space="preserve"><style>.st0{fill:#fff}</style><path id="path0_fill" class="st0" d="M358.5 1999.3c377.9-17.4 333.2-386.3 329.3-658.6-824.9-131.4-809.4 619.1-329.3 658.6z"/><path id="path1_fill" class="st0" d="M29.2 1011.3C46.6 633.4 415.5 678.1 687.8 682v658.7c-272.6 4-641.2 48.3-658.6-329.4z"/><path id="path1_fill_1_" class="st0" d="M29.2 352.7C46.6-25.2 415.5 19.5 687.8 23.4V682c-272.6 4-641.3 48.3-658.6-329.3z"/><path id="path2_fill" class="st0" d="M687.8 23.3c884.2-143 882.6 802.1 0 658.7V23.3z"/><path id="path3_fill" class="st0" d="M1346.5 1011.3c-7.5 432.8-651.2 432.8-658.6 0 7.5-432.8 651.2-432.8 658.6 0z"/><path class="st0" d="M2375.7 731.7h-1475c-53.2 0-96.5 43.3-96.5 96.5v1551.1c0 53.2 43.3 96.5 96.5 96.5h829.7c14.1 0 25.6-11.4 25.6-25.6 0-14.1-11.4-25.6-25.6-25.6H900.7c-25 0-45.4-20.4-45.4-45.4V828.1c0-25 20.3-45.4 45.4-45.4h1475c25 0 45.4 20.4 45.4 45.4v1551.1c0 25-20.4 45.4-45.4 45.4h-526c-33.6.3-33.6 50.8 0 51.2h526c53.2 0 96.5-43.3 96.5-96.5V828.1c0-53.2-43.3-96.4-96.5-96.4z"/><path class="st0" d="M2324.2 2224.2C2247.8 560 2754.3 924.7 1048.7 886.6c-53.2 0-96.5 43.3-96.5 96.5 76.4 1664.2-430.2 1299.7 1275.5 1337.7 53.2-.1 96.5-43.4 96.5-96.6zm-1320.9 0c25.9-22.7-57.5-1335.1 45.4-1286.5 24.9 25.7 1269.4-57.3 1224.4 45.4-25.9 22.7 57.5 1335.3-45.4 1286.6-25-25.7-1269.2 57.4-1224.4-45.5z"/><path class="st0" d="M1607.5 1257.4c-89.6-102.9-263.4-79.9-384.4-81.4-50.4-1.2-95.1 43.4-93.9 93.9v271.9c0 14.1 11.4 25.6 25.6 25.6s25.6-11.4 25.6-25.6v-271.9c-.7-23.1 19.8-43.4 42.7-42.8h184.7c370.6 44.4 281.7 526.1-116.5 460.2-14.1.1-25.4 11.5-25.4 25.6V1933c0 23.6-19.2 42.8-42.8 42.8s-42.8-19.2-42.8-42.8v-271.9c.6-33.1-51.7-33.3-51.2 0V1933c2.1 123.2 185.6 123.6 187.8 0v-194.8c279.2 57.2 506.2-267.4 290.6-480.8z"/><path class="st0" d="M1274.4 1594.4c31.8 17.4 105 2.5 133.4 7 194.2-5.1 194.2-283.7 0-288.8h-116.2c-13.8-.3-25.9 11.8-25.6 25.6.4 110.3.1 120.4.7 238.2.1 6.8 2.9 13.3 7.7 18zm133.4-230.8c127.2 3.4 127.2 183.3 0 186.6-21.4 0-57.3.1-90 .3-.4-91.2-.2-99.3-.5-186.9h90.5zM2102.8 1489.7c-338.6-200.9-590.6 251.7-158 350.1-81.5 32.9-142.1-89.7-223.1-16.1-108.2 117.4 91.6 215.6 193.2 207.8 283.8-9.6 295.7-340.4 20.4-395.3 40.5-13 78.5 25.9 121.6 27.6 93.8 3.4 121.6-121.6 45.9-174.1zm-6.9 85.6c-15.8 95.4-121.7-37.2-200.9 22.9-25 9.1-51 51.5-16.8 69.2 364.9 88.3 197.1 412.1-91.6 278.8-75.5-30.2-43.5-128.8 30.8-82.6 48.9 48.6 179.7 41.2 185.6-19.7 3-71.6-171.9-78.7-214.2-143.7-136.4-181.4 253.4-299.9 307.1-124.9z"/></svg>