<svg version="1.1" id="Layer_1" xmlns="http://www.w3.org/2000/svg" x="0" y="0" viewBox="0 0 512 512" xml:space="preserve"><style>.st1{fill:#d88030}</style><g id="XMLID_3000_"><path id="XMLID_3010_" d="M150.4 0c7.1 53.6-36.9 97.6-90.5 90.5v165.9l98 14.7 98-14.7L271 128.2 256 0H150.4z" fill="#f93"/><path id="XMLID_3009_" class="st1" d="M452.1 90.5c-53.6 7.1-97.6-36.9-90.5-90.5H256v256.4l98 14.7 98-14.7c.1-4.7.1-161.2.1-165.9z"/><path id="XMLID_3008_" class="st1" d="M59.9 256.4c-7.4 156.8 107 170 196 255.6L271 384.2l-15-127.8H59.9z"/><path id="XMLID_3006_" d="M340.7 448.4c69.9-26.4 120.7-127.5 111.4-191.9H256V512c24.6-25.9 52.5-48.7 84.7-63.6z" fill="#c60"/><path d="M356.8 303.5c0 47.5-22.8 86.2-68.4 116.2 56.8-69.3 58.6-127.9-14.3-173.4-15.9-11.2-54.1-26-114.9-44.3 4.1-21 8.8-37.8 13.9-50.5 6-20 31.6-32.1-3.2-36.7V110c7.6-2.2 176.4 5.2 176.3-5.1-2 7.6-10.3 40.1-26 53.4-1-10.6-5.8-19.2-14.4-25.7-31.7-23.1-76.9-4.5-82.1 33.7 30.3 8.5 79.2 42.5 98.4 61.8 26.3 27.2 24.9 32.8 34.7 75.4z" fill="#fff"/></g></svg>