<svg version="1.1" id="Layer_1" xmlns="http://www.w3.org/2000/svg" x="0" y="0" viewBox="0 0 512 512" xml:space="preserve"><style>.st1{fill:#ecbd2c}.st3{fill:#fff}</style><g id="XMLID_3000_"><path id="XMLID_3010_" d="M150.4 0c7.1 53.6-36.9 97.6-90.5 90.5v165.9l98 14.7 98-14.7L271 128.2 256 0H150.4z" fill="#fc3"/><path id="XMLID_3009_" class="st1" d="M452.1 90.5c-53.6 7.1-97.6-36.9-90.5-90.5H256v256.4l98 14.7 98-14.7c.1-4.7.1-161.2.1-165.9z"/><path id="XMLID_3008_" class="st1" d="M59.9 256.4C53.2 414.7 166.6 425.6 256 512l15.1-127.8L256 256.4H59.9z"/><path id="XMLID_3006_" d="M340.7 448.4c70-26.4 120.6-127.5 111.4-191.9H256V512c24.6-25.9 52.6-48.6 84.7-63.6z" fill="#c93"/><path class="st3" d="M260.6 100.9c-14.9 7.8-14.1 13.7-15.4 30.1 2.9 16.4-9.2 206.8 4.7 215.2-23.3 1.1-63.1 27.4-88.6 22.1-16.7 1.6-62.7-24.4-60.5-43.8 14-12.6 29.5-21.9 40.4-29.7-15.5 22 .1 61.8 29.7 60.8 59.7 9.6 26.3-159.8 34.4-190.5.2-7-2.5-28.7-2.3-35.8.8-17.2-6.5-19.7-16.7-28.4h74.3zM411 163.1c-5.1 7.8-12.9 19.3-23.4 34.4-6.6-35.7-72.2-33-91.2-12.7 23.3 15.5 71.2 34.5 87.6 54.1 42.7 40 29.4 109.9-24.1 141 78.8-94.2-9.3-136-94.6-159.1 21.7-55.5 89.8-86.5 145.7-57.7z"/></g></svg>