<svg xmlns="http://www.w3.org/2000/svg" viewBox="0 0 289.3 289.3"><path d="M124.6 19.6c-11.8-3.5-1.7 116.8-4.9 120.1H59.3c-1.4-4.2 4.1-30.5-4.7-29.7-2.6-.5-50.1 30-52.4 30.7-13.5 8.4 48.4 33.6 50 38 3 1.9 7.1-.5 7.1-4v-25h60.3c3.1 3.3-6.8 123.3 4.9 120.1 2.7.1 5.1-2.3 5.1-5-4.6-5.2 9-245.9-5-245.2zm40 0c-13.7-.8-.4 240-4.9 245.1 0 6.5 10 6.7 10 .1v-115H230v25c-.1 3.5 4.1 6 7.1 4 1.5-4.6 63.5-29.5 50-38-1.9-.7-50.1-31-52.2-30.7-9.1-1.1-3.4 25.5-4.9 29.7h-60.3c-2.6-2.9 6.2-124.6-5.1-120.2zM50 122.9v43.5c-43.6-26.7-43.7-16.9 0-43.5zm189.3 0c44.1 27.3 44 16.4 0 43.6v-43.6zm-194.6 9.2c-2.2 1.5-20.5 9.7-18.2 13.8.3 4.6 28.9-12.6 18.2-13.8zm199.9 0c-10.3 1.6 17.4 18.1 18.3 14 2.7-4.3-16-12.6-18.3-14z" fill="#fff"/></svg>