<svg xmlns="http://www.w3.org/2000/svg" viewBox="0 0 179 179"><path d="M94.6 68H24.1v-5.7h70.5V68zM24.1 93.6h54.3v-5.8H24.1v5.8zm0 19.8v5.8h54.3v-5.8H24.1zm0 31.3h70.5V139H24.1v5.7zm95.1 16.1l8.2-8.2c-2.8-.1-5.5-.5-8.2-1.1v9.3zM10.7 139.6V25.4c0-17.3 1.4-18.6 18.6-18.6h88.8c17.3 0 18.6 1.4 18.6 18.6v37.2c2.3.4 4.5.9 6.7 1.7V25.4C143.4 4.5 139 0 118 0H29.3C8.4 0 4 4.4 4 25.4v114.2C4 160.5 8.4 165 29.3 165H115v-6.7H29.3c-17.2-.1-18.6-1.5-18.6-18.7zm138.4 1.7c-44.4 25.4-83.4-42.1-39.2-67.9 44.5-25.4 83.4 42.1 39.2 67.9zm-3.2-5.6c36.9-21.5 4.6-77.9-32.7-56.7-36.9 21.5-4.5 77.9 32.7 56.7zm13.1 3.1l-16.8 9.7 13 22.4 16.8-9.7-13-22.4zm14.7 25.6l-16.8 9.7c6.1 11.1 23.3 1.1 16.8-9.7z" fill="#fff"/></svg>