<svg version="1.1" id="Слой_1" xmlns="http://www.w3.org/2000/svg" x="0" y="0" viewBox="0 0 1000 1000" xml:space="preserve"><style>.st0{fill:#fff}</style><path class="st0" d="M2150.3 3797.1l-328.8-81.2c-3.5-113.3 18-321.2 29-464.2-46.7-20.2-140.6-60-187.6-79.3-98.3 76.1-296.3 229.4-394.5 305.6-99.8-96.7-520.1-492.8-539.6-526 8.4-24.9 203.3-300.7 249.5-371.3-25.7-35.1-108.8-164.2-129.6-168.3 2.2-1.2-478.5 62.8-477.7 54.1-9.7-9.7-203.1-678.8-203.1-702 0-13.5 87-63.8 193.4-114.1 208.9-96.7 206.9-92.8 181.8-245.6-11.6-65.8-17.4-69.6-224.3-152.8-116-46.4-214.7-90.9-218.5-96.7-2.6-40.4 137.4-602.9 170.2-738.8 139.7 17.1 301.6 29.5 437.1 46.4 25.4-49.5 75.9-149.3 100.6-199.2C733.5 168.2 584.1-25 510.3-121.2 612-228.5 963.6-602.3 1009.2-643.4c13.9-54.5 320.9 185.3 390.7 228.2 42.3-27.4 200-129.3 218.5-131.5 7.7 0 29 30.9 50.3 67.7 40.6 75.4 48.3 65.8-133.4 189.5l-131.5 90.9c-65.9-45.5-313.9-225.7-342.3-232-19.3 0-313.3 299.8-313.3 319.1 0 5.8 60 89 131.5 183.7l131.5 172.1C963.1 341.8 867 539.1 819.7 637c-75.6.6-458.6-49.1-425.5 9.7-54.2 199.2-92.8 398.4-79.3 410 28.5 20.8 309.2 131.7 388.8 164.4l13.5 174.1c7.7 96.7 19.3 195.3 25.1 220.5 61.6 49.3-364 208.1-375.2 224.3-5.8 5.8 116 408.1 129.6 423.5 7.7 9.7 112.2 1.9 232.1-13.5 205-29 220.5-29 243.7 3.9 35.6 65.9 154.1 229.4 224.3 319.1-310.1 456.9-299.6 300 89.1 671.1 89.9-70.8 271.2-212.5 361.7-282.4 94.7 43.1 285 131.4 379 176-5.8 111.3-17.5 335.3-23.2 446.6 89.5 22.2 360.2 85.1 404.2 98.7 30.9 7.7 50.3-23.2 118-191.5 44.5-110.2 87-208.9 94.8-220.5 20.6-29 341.9-35.2 425.5-40.6 36.1 75.3 170.4 370.5 205 381 25.1 0 402.3-112.2 411.9-123.8 5.8-3.9-5.8-106.4-23.2-228.2-29-206.9-29-220.5 3.9-243.7 34.5-25 270.5-181.7 303.6-205 27-28 300.5 178.4 367.4 222.4l325-325c-49.6-65.9-151.5-196.8-203.1-261.1 29-22.9 110-90.8 131.5-92.8 34.9 9.9 242.3 292.7 299.8 363.6-132.6 136.4-399.4 410.9-531.9 547.3-89.7-63.6-270.1-191.6-359.8-255.1-210.5 125.6-179.2 105.5-143.1 379.1 17.4 116 23.2 216.6 15.5 224.3-13.5 11.6-676.9 210.8-704 210.8-22-14.1-162.1-330.4-197.2-406.2h-203.1c-251.9 545.2-67.1 503.5-593.8 379.1zM5428.5 3021.6v-125.7h-232v-174h232v-232h174V2720c60.3 2.8 181.5 8.7 241.7 11.6 2.9 40.5 8.7 121.9 11.6 162.4-60.7 2.9-182.9 8.7-243.6 11.6-2.8 60.3-8.7 181.5-11.6 241.7h-172.1v-125.7z" transform="matrix(.1 0 0 -.1 0 511)"/><path class="st0" d="M2508.1 2799.2C1286.4 2696 694.2 1048.9 1610.7 226.9c27 28 81.3 84.3 108.3 112.2-1145.7 1256.4 479.1 2988 1800.6 2019.1 29-27.1 36.8-25.2 73.5 7.7 90.9 81.2 87 98.6-54.2 189.5-309.4 199.3-678.8 286.3-1030.8 243.8z" transform="matrix(.1 0 0 -.1 0 511)"/><path class="st0" d="M3388.1 2089.4c-235.4-120.9-164.7-139.4-183.8-537.7V1194h174c9.8 130.1-25.3 750.1 36.7 715.6 64-39.2 5255.8 115.8 6295.3-23.2 26.9-38.7 30.7-284.3 30.7-2253.1 0-2185.4 0-2210.6-38.7-2249.2s-63.8-38.7-2620.6-38.7H4500.2v-174h1102.4v-348.2c-490.8 10.9-543.1 12-522.2-483.5h2959c26.4 491.5-78.8 493.6-541.5 483.5v346.2c424.1 16.8 2349.2-19.8 2287.9 46.4 121.9 79.3 114.2-98.6 114.2 2421.4s7.7 2342.1-114.1 2421.4c622.5 58.9-6522.6 34.7-6397.8 30.8zm3939.6-5092.2l-5.8-174.1H5776.6v348.2h1556.9l-5.8-174.1zm533.8-419.7l5.8-63.8H5254.4v135.4c648.4-1.5 1953-6.4 2601.2-9.7l5.9-61.9z" transform="matrix(.1 0 0 -.1 0 511)"/><path class="st0" d="M3610.5 1445.4V1194h174v328.8h5550.6v-3133.2H4500.2v-174h5009v3481.2H3610.5v-251.4z" transform="matrix(.1 0 0 -.1 0 511)"/><path class="st0" d="M5080.4 787.8V381.7h3113.8V1194H5080.4V787.8zm2939.6 0V555.7H5254.4v464.2H8020V787.8zM2190.9 919.3c-504.4-269.3-231.6-636.7-298-2268.6 70-2045.6-157.6-1754 237.8-2123.6 75.5-40.6 100.7-42.6 880.1-48.3 1106.6 23.7 944.6-85.8 1214.5 297.8 33.3 48.4 20.5 1226.9 23.2 1516.3h-174c-9.9-351.1 62.2-1724-145-1605.2-79.3-38.7-106.4-40.6-885.8-34.8-1372.3 34.5-883-217.2-980.6 2052 23.5 2090.8-58.7 1827.5 158.6 2053.9 338.6-11.1 1734 42.7 1715.5-25.1 177.8-11.4 133.5-554 137.4-777.6h174c-.2 260.6 28.9 774.6-129.6 854.8-125.7 129.6-147 131.5-1048.2 129.6-489.2-1.8-833.4-9.6-879.9-21.2z" transform="matrix(.1 0 0 -.1 0 511)"/><path class="st0" d="M2662.8 546.1v-87c176 1.5 530 6.4 705.9 9.7 2.8 41 8.6 123.5 11.6 164.4h-717.5v-87.1zM2179.3-1194.6v-1479.5h1779.3v967h-174V-2500H2353.4V110.9h1431.2v-369.3c41 2.8 123.5 8.6 164.4 11.6 2.9 132.6 8.7 399.4 11.6 531.9H2179.4l-.1-1479.7zM7246.4-246.9v-473.8H8194V227h-947.6v-473.9zm773.6 0v-299.8h-599.6V52.9H8020v-299.8zM5157.7 62.6v-87c445.9 1.5 1343.2 6.4 1788.9 9.7 2.8 41 8.6 123.5 11.6 164.4H5157.8l-.1-87.1z" transform="matrix(.1 0 0 -.1 0 511)"/><path class="st0" d="M2450.1-391.9V-798h1218.4V14.2H2450.1v-406.1zm1044.4 0V-624h-870.4v464.2h870.4v-232.1zM5157.7-227.5v-87h1798.6v174H5157.7v-87zM3865.8-666.6l5.8-83.2h3075c2.8 41 8.6 123.5 11.6 164.4H3860l5.8-81.2zM2469.4-1078.5v-85.1c876.9-14.4 2187.3-6.7 3210.4 0v172.1H2469.4v-87zM5970-1078.5v-87h522.2v174H5970v-87zM6782.3-1078.5v-87h522.2v174h-522.2v-87zM7588.8-1003.1c-16.4-17.3-13.5-125.3-13.5-162.5h543.5c-2.8 41-8.6 123.5-11.6 164.4-100 2.8-485 12.9-518.4-1.9zM2473.3-1440.2l5.8-83.2c286.8-3.3 864-8.2 1150.7-9.7v174H2467.5l5.8-81.1zM2469.4-1736.1v-87h1160.4v174H2469.4v-87zM6325.9-1937.2c-278.6-110.5-199.5-584.6 127.7-553.1 125.7 0 137.3 3.9 203.1 67.7 255.4 228.7-37.5 636.8-330.8 485.4zm187.5-158.6c90.9-48.3 79.3-199.2-15.5-222.4-249.4-60.7-193.6 327.3 15.5 222.4zM2962.6-2739.8c-100.1-60.3-163-98.4-154.7-253.4-19-229 222-332.7 388.7-249.5 305.6 160.5 79 642.4-234 502.9zm172.1-177.9c67.7-67.7 21.3-181.8-73.5-181.8-159.5 7.2-59.7 307.1 73.5 181.8z" transform="matrix(.1 0 0 -.1 0 511)"/></svg>