<svg width="496" height="496" xmlns="http://www.w3.org/2000/svg">

 <g>
  <title>background</title>
  <rect fill="none" id="canvas_background" height="402" width="582" y="-1" x="-1"/>
 </g>
 <g>
  <title>Layer 1</title>
  <path fill="#fffc00" id="svg_1" d="m248,80c-92.64,0 -168,75.36 -168,168s75.36,168 168,168s168,-75.36 168,-168s-75.36,-168 -168,-168zm13.5,178l-29,0l0,18l41,0c8.84,0 16,7.16 16,16s-7.16,16 -16,16l-41,0l0,30c0,8.84 -7.16,16 -16,16s-16,-7.16 -16,-16l0,-30l-8,0c-8.84,0 -16,-7.16 -16,-16s7.16,-16 16,-16l8,0l0,-18l-8,0c-8.84,0 -16,-7.16 -16,-16s7.16,-16 16,-16l8,0l0,-68c0,-8.84 7.16,-16 16,-16l45,0c31.98,0 58,26.02 58,58s-26.02,58 -58,58zm0,-84l-29,0l0,52l29,0c14.34,0 26,-11.66 26,-26s-11.66,-26 -26,-26zm-13.5,-94c-92.64,0 -168,75.36 -168,168s75.36,168 168,168s168,-75.36 168,-168s-75.36,-168 -168,-168zm13.5,178l-29,0l0,18l41,0c8.84,0 16,7.16 16,16s-7.16,16 -16,16l-41,0l0,30c0,8.84 -7.16,16 -16,16s-16,-7.16 -16,-16l0,-30l-8,0c-8.84,0 -16,-7.16 -16,-16s7.16,-16 16,-16l8,0l0,-18l-8,0c-8.84,0 -16,-7.16 -16,-16s7.16,-16 16,-16l8,0l0,-68c0,-8.84 7.16,-16 16,-16l45,0c31.98,0 58,26.02 58,58s-26.02,58 -58,58zm0,-84l-29,0l0,52l29,0c14.34,0 26,-11.66 26,-26s-11.66,-26 -26,-26zm-13.5,-174c-137.061,0 -248,110.925 -248,248c0,137.061 110.925,248 248,248c137.061,0 248,-110.925 248,-248c0,-137.061 -110.925,-248 -248,-248zm0,448c-110.28,0 -200,-89.72 -200,-200s89.72,-200 200,-200s200,89.72 200,200s-89.72,200 -200,200zm0,-368c-92.64,0 -168,75.36 -168,168s75.36,168 168,168s168,-75.36 168,-168s-75.36,-168 -168,-168zm13.5,178l-29,0l0,18l41,0c8.84,0 16,7.16 16,16s-7.16,16 -16,16l-41,0l0,30c0,8.84 -7.16,16 -16,16s-16,-7.16 -16,-16l0,-30l-8,0c-8.84,0 -16,-7.16 -16,-16s7.16,-16 16,-16l8,0l0,-18l-8,0c-8.84,0 -16,-7.16 -16,-16s7.16,-16 16,-16l8,0l0,-68c0,-8.84 7.16,-16 16,-16l45,0c31.98,0 58,26.02 58,58s-26.02,58 -58,58zm0,-84l-29,0l0,52l29,0c14.34,0 26,-11.66 26,-26s-11.66,-26 -26,-26z"/>
 </g>
</svg>