<svg id="Layer_1" enable-background="new 0 0 495.987 495.987" height="512" viewBox="0 0 495.987 495.987" width="512" xmlns="http://www.w3.org/2000/svg"><path d="m485.491 135.323-65-65c-11.87-11.86-30.65-13.93-44.66-4.89-13.62 8.78-30.5 11.44-46.32 7.3-30.48-7.97-63.24.9-85.5 23.15l-3.05 3.05-50.2 5.12c-18.77 1.91-34.64-3.53-49.93-17.12-14.22-12.64-35.86-12.05-49.25 1.34l-81.08 81.08c-12.98 12.98-14.06 33.61-2.5 47.98 34.317 42.696 22.124 68.374 60.3 106.55l92.03 92.03c19.477 19.477 48.639 25.606 74.44 15.31l105.65-42.17c23.258-9.278 38.594-29.432 42.51-52.71l45.62-45.63c18.98-18.97 31.51-42.97 36.23-69.41 2.64-14.76 9.09-23.49 20.85-35.34 13.86-13.99 13.8-36.7-.14-50.64zm-22.589 28.11c-12.52 12.63-25.12 27.07-29.62 52.24-3.57 19.96-13.03 38.09-27.35 52.42l-28.21 28.2c-4.548-9.96-4.989-9.533-50.03-66.06 18.36-1.17 35.46-8.88 48.59-22.01 6.25-6.25 6.25-16.38 0-22.63s-16.38-6.25-22.63 0c-16.018 16.018-43.255 18.541-62.97-1.17-6.25-6.25-16.38-6.25-22.63 0l-16.42 16.41c-21.16 21.177-53.134 24.076-77.2 9.89l92.21-92.21c14.25-14.25 35.24-19.93 54.77-14.82 24.47 6.4 50.63 2.26 71.76-11.37 1.43-.92 3.4-.66 4.69.63l65 65c1.52 1.51 1.529 3.97.04 5.48z"/></svg>