<svg id="Layer_1" enable-background="new 0 0 496 496" height="512" viewBox="0 0 496 496" width="512" xmlns="http://www.w3.org/2000/svg"><path d="m180.5 374c144.52 0 136.086.972 141.524-2.412 77.279-48.085 90.169-155.792 25.776-220.64-54.757-55.145-144.217-56.553-200.633-.558-65.837 65.346-52.223 173.235 24.87 221.199 2.538 1.579 5.473 2.411 8.463 2.411zm-6.72-151.241c7.811-20.205 23.784-36.542 43.825-44.823 8.168-3.377 17.522.51 20.897 8.677s-.51 17.523-8.677 20.897c-11.982 4.951-21.531 14.715-26.198 26.787-3.185 8.24-12.447 12.341-20.693 9.155-8.241-3.186-12.34-12.451-9.154-20.693zm30.255 183.241h86c8.837 0 16 7.163 16 16v23c0 26.51-21.49 48-48 48h-22c-26.51 0-48-21.49-48-48v-23c0-8.837 7.163-16 16-16zm-134.035-155.035c0 8.836-7.164 16-16 16h-38c-8.836 0-16-7.164-16-16s7.164-16 16-16h38c8.836 0 16 7.164 16 16zm52.11 125.876c6.249 6.248 6.249 16.379 0 22.627l-26.87 26.87c-3.124 3.125-7.219 4.687-11.313 4.687-14.125 0-21.423-17.205-11.313-27.313l26.87-26.87c6.247-6.25 16.378-6.25 22.626-.001zm109.925-319.841v-38c0-8.836 7.164-16 16-16s16 7.164 16 16v38c0 8.836-7.164 16-16 16s-16-7.164-16-16zm-159.373 41.24c-6.249-6.248-6.249-16.379 0-22.627 6.248-6.249 16.379-6.249 22.627 0l26.87 26.87c10.112 10.111 2.809 27.313-11.313 27.313-4.095 0-8.189-1.562-11.313-4.687zm301.228 4.292 26.87-26.87c6.248-6.249 16.379-6.249 22.627 0 6.249 6.248 6.249 16.379 0 22.627l-26.87 26.87c-3.124 3.125-7.219 4.687-11.313 4.687-14.126 0-21.424-17.205-11.314-27.314zm122.11 148.503c0 8.836-7.164 16-16 16h-38c-8.836 0-16-7.164-16-16s7.164-16 16-16h38c8.836 0 16 7.163 16 16zm-72.662 152.725c6.249 6.248 6.249 16.379 0 22.627-6.247 6.248-16.379 6.249-22.627 0l-26.87-26.87c-6.249-6.248-6.249-16.379 0-22.627 6.248-6.249 16.379-6.249 22.627 0z"/></svg>