<svg width="512" height="512" xmlns="http://www.w3.org/2000/svg">

 <g>
  <title>background</title>
  <rect fill="none" id="canvas_background" height="402" width="582" y="-1" x="-1"/>
 </g>
 <g>
  <title>Layer 1</title>
  <path fill="#8958dd" id="svg_1" d="m256,80c4.418,0 8,-3.581 8,-8l0,-64c0,-4.418 -3.582,-8 -8,-8s-8,3.582 -8,8l0,64c0,4.419 3.582,8 8,8z"/>
  <path fill="#8958dd" id="svg_2" d="m256,432c-4.418,0 -8,3.582 -8,8l0,64c0,4.418 3.582,8 8,8s8,-3.582 8,-8l0,-64c0,-4.418 -3.582,-8 -8,-8z"/>
  <path fill="#8958dd" id="svg_3" d="m504,248l-64.001,0c-4.418,0 -8,3.581 -8,8c0,4.418 3.582,8 8,8l64.001,0c4.418,0 8,-3.582 8,-8c0,-4.419 -3.582,-8 -8,-8z"/>
  <path fill="#8958dd" id="svg_4" d="m79.999,256c0,-4.419 -3.582,-8 -8,-8l-63.999,0c-4.418,0 -8,3.581 -8,8c0,4.418 3.582,8 8,8l63.999,0c4.418,0 8,-3.582 8,-8z"/>
  <path fill="#8958dd" id="svg_5" d="m122.342,133.657c3.125,3.125 8.189,3.124 11.314,0c3.124,-3.124 3.124,-8.189 0,-11.313l-56,-56c-3.125,-3.124 -8.189,-3.124 -11.314,0c-3.124,3.124 -3.124,8.189 0,11.313l56,56z"/>
  <path fill="#8958dd" id="svg_6" d="m383.999,136c2.048,0 4.095,-0.781 5.657,-2.343l56,-56c3.124,-3.124 3.124,-8.189 0,-11.313c-3.125,-3.124 -8.189,-3.124 -11.314,0l-56,56c-5.056,5.055 -1.405,13.656 5.657,13.656z"/>
  <path fill="#8958dd" id="svg_7" d="m389.656,378.343c-3.125,-3.124 -8.189,-3.124 -11.314,0c-3.124,3.124 -3.124,8.189 0,11.313l56,56c1.563,1.562 3.609,2.343 5.657,2.343c7.061,0 10.714,-8.6 5.657,-13.657l-56,-55.999z"/>
  <path fill="#8958dd" id="svg_8" d="m122.342,378.343l-56,56c-3.124,3.124 -3.124,8.189 0,11.313c3.125,3.125 8.189,3.124 11.314,0l56,-56c3.124,-3.124 3.124,-8.189 0,-11.313c-3.125,-3.124 -8.189,-3.124 -11.314,0z"/>
  <path fill="#8958dd" id="svg_9" d="m255.999,96c-88.225,0 -160,71.776 -160,160s71.775,160 160,160s160,-71.776 160,-160s-71.775,-160 -160,-160z"/>
 </g>
</svg>