<svg id="Layer_1" enable-background="new 0 0 480.12 480.12" height="512" viewBox="0 0 480.12 480.12" width="512" xmlns="http://www.w3.org/2000/svg"><path d="m212.06 472.12v-214.953c0-4.419 3.577-8.001 7.996-8 13.299.003 26.71.003 40.009.002 4.419-.001 7.995 3.581 7.995 8v214.951c0 4.418-3.582 8-8 8h-40c-4.418 0-8-3.581-8-8zm-24.001-222.963c-66.399-.032-125.088-.119-145.953-.259-4.439-.03-8.047 3.561-8.047 8v183.223c0 22.091 17.909 40 40 40h114c4.418 0 8-3.582 8-8v-214.964c.001-4.417-3.583-7.998-8-8zm249.951-.254c-20.873.146-79.557.231-145.949.258-4.417.002-8.001 3.583-8.001 8v214.96c0 4.418 3.582 8 8 8h114c22.091 0 40-17.909 40-40v-183.218c0-4.44-3.61-8.032-8.05-8zm-253.95-15.793h112c4.418 0 8-3.582 8-8v-105.23c0-4.418-3.582-8-8-8h-112c-4.418 0-8 3.582-8 8v105.23c0 4.419 3.582 8 8 8zm256-121.23h-112c-4.418 0-8 3.582-8 8v105.23c0 4.418 3.582 8 8 8h112c22.091 0 40-17.909 40-40v-41.23c0-22.091-17.908-40-40-40zm-288 0h-112c-22.091 0-40 17.909-40 40v41.23c0 22.091 17.909 40 40 40h112c4.418 0 8-3.582 8-8v-105.23c0-4.418-3.582-8-8-8zm144-111.88c-14.54 0-28.25 4.75-39.64 13.75-3.46 2.74-4.06 7.77-1.32 11.23 2.74 3.47 7.77 4.06 11.24 1.33 8.54-6.75 18.81-10.31 29.72-10.31 35.199 0 58.427 36.839 43.395 68.517-2.397 5.051.848 11.363 7.331 11.363 3.036 0 5.806-1.744 7.11-4.485 20.078-42.204-10.863-91.395-57.836-91.395zm-111.007.008c-47.433-.723-79.081 48.818-58.83 91.388 1.235 2.595 3.819 4.485 7.398 4.485 5.837 0 9.546-6.089 7.043-11.363-15.165-31.958 8.636-69.18 44.316-68.508 26.281.495 47.079 22.51 47.079 48.796v23.211c0 4.066 3.149 7.864 8.136 7.864 4.343 0 7.864-3.521 7.864-7.864v-23.045c.001-35.122-27.888-64.429-63.006-64.964z"/></svg>