<svg id="Layer_1" enable-background="new 0 0 495.976 495.976" height="512" viewBox="0 0 495.976 495.976" width="512" xmlns="http://www.w3.org/2000/svg"><path d="m407.946 207.314-75.61 75.01-13.16.09c12.68-15.42 20.3-35.15 20.3-56.63 0-8.84-7.17-16-16-16h-132.41c-4.24 0-8.31 1.69-11.31 4.69l-81.92 81.92c-17.446-7.571-39.159-4.61-54.1 10.33l-29.42 29.41c-19.09 19.1-19.09 50.17.01 69.27l75.94 75.94c19.154 19.154 50.118 19.142 69.26 0l29.41-29.41c11.61-11.61 16.16-27.65 13.66-42.73h142.76c4.24 0 8.31-1.69 11.31-4.69l124.2-124.19c9.74-9.75 15.11-22.7 15.11-36.48 0-45.884-55.748-68.812-88.03-36.53zm-313.89 180.787c-6.249 6.249-16.379 6.248-22.627 0l-2.188-2.188c-6.249-6.248-6.249-16.379 0-22.627 6.248-6.248 16.379-6.248 22.627 0l2.188 2.188c6.248 6.249 6.248 16.379 0 22.627zm364.18-130.407-119.51 119.51h-155.25l-60.6-60.6 74.82-74.82h107.5c-6.47 22.25-26.11 38.95-49.87 41.08l-32.64.23c-8.81.07-15.91 7.25-15.88 16.06s7.18 15.94 16 15.94c8.288 0 107.996-.761 116.28-.82 4.18-.03 8.19-1.7 11.16-4.64l80.28-79.65c7.64-7.64 20.07-7.64 27.71 0s7.64 20.07 0 27.71zm-30.984-85.351c-.152 1.57-1.255 2.885-2.758 3.363-16.256 5.176-22.752 13.952-52.878 43.858-7.38 7.31-19.82 2-19.78-8.39 0-10.959-8.577-18.52-18.16-18.52h-16.386c1.805-21.319-11.296-40.227-30.464-46.84l-21.27-7.33c-5.42-1.87-9.07-6.99-9.07-12.72 0-7.43 6.04-13.46 13.46-13.46h2.06c7.42 0 13.46 6.03 13.46 13.46 0 8.911 7.292 16.132 16.244 15.998 8.842-.132 15.901-7.947 15.749-16.789-.334-19.478-12.989-36.012-30.483-42.14v-13.64c0-9.094-7.577-16.41-16.765-15.982-8.609.401-15.235 7.813-15.235 16.431v13.191c-40.687 14.251-40.442 71.897.15 85.9l21.27 7.33c9.63 3.323 11.987 16.59 5.115 16.59h-21.076c-2.135 0-3.942-1.695-3.948-3.83-.028-9.36-7.801-16.52-16.911-16.015-8.496.471-15.276 7.846-15.08 16.827.036 1.658-1.3 3.018-2.959 3.018h-40.161c-4.81 0-9.43 1.92-12.84 5.33l-32.241 32.241c-1.422 1.422-3.814 1.042-4.74-.743-55.155-106.36 25.094-233.282 144.995-229.11 89.629 3.12 159.44 81.819 150.702 171.972z"/></svg>