<svg width="512" height="512" xmlns="http://www.w3.org/2000/svg">

 <g>
  <title>background</title>
  <rect fill="none" id="canvas_background" height="402" width="582" y="-1" x="-1"/>
 </g>
 <g>
  <title>Layer 1</title>
  <path fill="#8958dd" id="svg_1" d="m463,225.03c0,-25.534 2.286,-72.844 -30.39,-126.33c-36.809,-60.278 -102.69,-99.7 -177.61,-99.7c-115.005,0 -208,93.272 -208,208l0,18.03c-27.58,7.12 -48,32.2 -48,61.97l0,80c0,35.29 28.71,64 64,64l32,0c0,8.84 7.16,16 16,16s16,-7.16 16,-16c0,-1.89 0,-181.613 0,-208c0,-8.84 -7.16,-16 -16,-16s-16,7.16 -16,16l-16,0c0,-23.669 -1.217,-54.059 17.62,-92.84c21.746,10.1 48.685,6.066 66.6,-12.37c51.77,-53.261 135.555,-50.192 183.61,0.05c18.228,18.76 45.285,22.204 66.56,12.32c18.85,38.842 17.61,69.963 17.61,92.84l-16,0c0,-8.84 -7.16,-16 -16,-16s-16,7.16 -16,16l0,208c0,8.84 7.16,16 16,16s16,-7.16 16,-16l13.97,0c-7.12,27.58 -32.2,48 -61.97,48l-64,0c0,-17.645 -14.355,-32 -32,-32s-32,14.355 -32,32s14.355,32 32,32l96,0c48.1,0 88.05,-35.56 94.94,-81.77c28.11,-6.74 49.06,-32.09 49.06,-62.23l0,-80c0,-29.77 -20.42,-54.85 -48,-61.97z"/>
 </g>
</svg>