<svg width="512" height="512" xmlns="http://www.w3.org/2000/svg"><path fill="none" d="M-1-1h822v502H-1z"/><g><path fill="#fff" d="M504.094 51.27c-6.254-7.649-15.621-11.86-26.379-11.86-5.848 0-12.043 1.23-18.41 3.664L25.906 208.516c-23 8.777-26.097 21.949-25.898 29.02s4.04 20.046 27.5 27.51c.14.044.281.087.422.126l89.898 25.726 48.618 139.024c6.628 18.953 21.507 30.726 38.835 30.726 10.926 0 21.672-4.578 31.079-13.234l55.605-51.2 80.652 64.942c.008.008.02.012.028.02l.765.617.215.168c8.965 6.953 18.75 10.625 28.309 10.629h.004c18.676 0 33.547-13.824 37.879-35.215l71.011-350.64c2.852-14.075.461-26.669-6.734-35.465zM147.903 286.012l173.441-88.606L213.348 312.16a14.975 14.975 0 00-3.64 6.684l-20.825 84.351-40.98-117.183zm68.132 139.332c-.718.66-1.441 1.25-2.164 1.793l19.32-78.25 35.145 28.3-52.3 48.157zM481.426 80.777l-71.012 350.645c-.683 3.355-2.867 11.164-8.48 11.164-2.774 0-6.258-1.512-9.824-4.258l-91.391-73.586a.173.173 0 00-.043-.031l-54.379-43.79 156.176-165.948a15 15 0 00-17.746-23.637L127.86 262.562l-91.121-26.07 433.265-165.39c3.66-1.399 6.215-1.692 7.711-1.692.918 0 2.55.11 3.156.856.797.972 1.813 4.289.555 10.511zm0 0"/></g></svg>