<?xml version="1.0" encoding="utf-8"?>
<!-- Generator: Adobe Illustrator 24.1.2, SVG Export Plug-In . SVG Version: 6.00 Build 0)  -->
<svg version="1.1" id="Слой_1" xmlns="http://www.w3.org/2000/svg" xmlns:xlink="http://www.w3.org/1999/xlink" x="0px" y="0px"
	 viewBox="0 0 750.6 308.9" style="enable-background:new 0 0 750.6 308.9;" xml:space="preserve">
<style type="text/css">
	.st0{opacity:0.33;}
	.st1{fill:url(#SVGID_1_);}
	.st2{fill:url(#SVGID_2_);}
	.st3{opacity:0.22;}
	.st4{fill:url(#SVGID_3_);}
	.st5{fill:url(#SVGID_4_);}
	.st6{fill:url(#SVGID_5_);}
	.st7{fill:url(#SVGID_6_);}
	.st8{fill:url(#SVGID_7_);}
	.st9{fill:url(#SVGID_8_);}
	.st10{fill:url(#SVGID_9_);}
	.st11{fill:url(#SVGID_10_);}
	.st12{fill:url(#SVGID_11_);}
</style>
<g>
	<g class="st0">
		
			<linearGradient id="SVGID_1_" gradientUnits="userSpaceOnUse" x1="200.3362" y1="65.9326" x2="119.9846" y2="-237.0612" gradientTransform="matrix(1 0 0 -1 0 117)">
			<stop  offset="0" style="stop-color:#FC6F55"/>
			<stop  offset="1" style="stop-color:#C3687B"/>
		</linearGradient>
		<path class="st1" d="M282.5,133.9c-8.5,1.2-17.2,2.5-25.5,0.5c-12.6-3.1-23.2-13.4-36.2-13.5c-5.2-0.1-10.3,1.5-15.5,1.2
			c-6.2-0.3-11.9-3.4-17.5-6.1c-17.4-8.4-36-14.3-55-17.6c-5-0.9-10.1-1.6-14.6-3.8c-4.8-2.4-8.7-6.4-13.2-9.5
			c-5.4-3.7-11.8-6.1-18.4-6.7c-4.4-0.4-8.9-0.1-13.3-0.9c-7.8-1.3-14.5-5.9-21.2-10c-15-9.3-31.4-17.1-49-17.9
			c-1.4-0.1-2.7,0.3-4.1,1.1v198.6l280.4-8.1l103.2-117.9C351.3,127.9,313.7,129.3,282.5,133.9L282.5,133.9z"/>
	</g>
	<g class="st0">
		
			<linearGradient id="SVGID_2_" gradientUnits="userSpaceOnUse" x1="7.187096e-03" y1="-63.85" x2="358.5072" y2="-63.85" gradientTransform="matrix(1 0 0 -1 0 117)">
			<stop  offset="0" style="stop-color:#FC6F55"/>
			<stop  offset="1" style="stop-color:#C3687B"/>
		</linearGradient>
		<path class="st2" d="M327,131.5c-11.2,0.3-22.7,1.9-33.5-0.9c-7-1.8-13.3-5.4-20-8.2c-14-5.9-29.1-8.4-44.2-10.9
			c-9.4-1.6-18.9-3.1-28.3-4.7c-3.6-0.6-7.3-1.2-10.5-2.8c-3.8-1.9-6.7-5.1-9.8-7.9c-9.8-9-24.3-15.1-36.7-10
			c-7.1,3-13.9,9.5-21.3,7.3c-1.6-0.5-3.3-1.4-5-0.9c-1.6,0.5-2.5,2.1-4,2.7c-2.9,1.1-5.7-2.1-8.9-2.5c-5.6-0.8-8.5,6.9-14,8.4
			c-3.6,0.9-7.5-1.2-11.2-0.4c-3.6,0.8-5.9,4.1-9.3,5.4c-7.1,2.7-14-3.9-18.6-9.8c-5.8-7.5-11.6-15-17.3-22.4
			c-3.2-4.1-6.6-8.4-11.5-10.3S11.2,63.2,9.4,68C7.6,63.8,5,60,1.7,56.7c-0.5-0.5-1.1-1-1.7-1.4v215.1l8.7,36l349.8-165.9
			C350.4,132.8,338.2,131.3,327,131.5z"/>
	</g>
	<g class="st3">
		
			<linearGradient id="SVGID_3_" gradientUnits="userSpaceOnUse" x1="387.7072" y1="54" x2="756.0072" y2="54" gradientTransform="matrix(1 0 0 -1 0 117)">
			<stop  offset="0" style="stop-color:#FC6F55"/>
			<stop  offset="1" style="stop-color:#C3687B"/>
		</linearGradient>
		<path class="st4" d="M756,126.5v-127c-4.5,1.1-8.7,3.8-11.6,8.2c-2.2,3.3-4.4,7.9-7.9,7.7c-1.4-0.1-2.8-1-4.2-1.1
			c-5.1-0.2-7.9,10.1-12.9,8.7c0.5-1.7-1.1-3.4-2.6-3.3c-1.5,0.1-2.7,1.4-3.8,2.7c-3.3,4-5.9,8.8-7.7,14c-1.8-6-8.5-7.9-13.5-5.5
			c-4.9,2.4-8.3,7.8-11.5,12.9c-5.8,9.3-11.6,18.6-17.3,27.9c-4.6,7.3-11.5,15.6-18.6,12.2c-3.4-1.6-5.8-5.8-9.3-6.7
			c-3.7-1-7.6,1.6-11.2,0.5c-5.5-1.8-8.4-11.4-14-10.4c-3.1,0.5-5.9,4.6-8.9,3.1c-1.5-0.7-2.4-2.8-4-3.4s-3.3,0.5-5,1.1
			c-7.4,2.7-14.2-5.4-21.3-9.1c-12.4-6.4-26.9,1.3-36.7,12.5c-3.1,3.5-6,7.5-9.8,9.9c-3.2,2-6.9,2.8-10.5,3.5
			c-9.4,1.9-18.9,3.9-28.3,5.8c-15,3.1-30.2,6.2-44.2,13.5c-6.6,3.5-13,7.9-20,10.2c-10.8,3.5-22.3,9.5-33.5,9.2"/>
	</g>
	
		<linearGradient id="SVGID_4_" gradientUnits="userSpaceOnUse" x1="518.4072" y1="-11.4947" x2="752.0072" y2="-11.4947" gradientTransform="matrix(1 0 0 -1 0 117)">
		<stop  offset="0" style="stop-color:#E16771"/>
		<stop  offset="1" style="stop-color:#A85A73"/>
	</linearGradient>
	<path class="st5" d="M751.9,43.5c-0.6-0.6-1.2-1.3-1.7-1.9c-5.7-6-12.6-12.1-20.8-11.8c-8.3,0.3-15.5,7.1-23.8,6.9
		c-7.6-0.2-14.1-6.3-21.7-6.1c-5.8,0.2-10.8,4-15.3,7.6c-33.9,26.8-111.5,66.1-150.2,85.2L752,227.2V43.5H751.9z"/>
	
		<linearGradient id="SVGID_5_" gradientUnits="userSpaceOnUse" x1="217.46" y1="27.9466" x2="225.55" y2="-168.6384" gradientTransform="matrix(1 0 0 -1 0 117)">
		<stop  offset="0" style="stop-color:#E16771"/>
		<stop  offset="1" style="stop-color:#7A314B"/>
	</linearGradient>
	<path class="st6" d="M84.7,135.4c3-8.3,13.8-10.1,22.6-10.6c3.6-0.2,7.1-0.4,10.7-0.6c2.4-0.1,4.9-0.3,7.2,0.3
		c2.4,0.5,4.5,1.7,6.7,2.8c5.4,2.6,11,4.5,16.7,6.4c8.5,2.8,17.1,5.7,26,5.8c6.7,0,13.4-1.6,19.3-4.6c2.2-1.1,4.3-2.5,6.7-3.1
		c6.5-1.7,13.1,2.2,18,6.8s9,10.2,15,13.2c8.3,4.1,18.2,2.4,27.4,3.5c14.4,1.7,28.6,10.4,42.5,6.2c4.2-1.3,8-3.7,12-5.3
		c13.6-5.4,30.5-1,39.8,10.3l-52.4,68.3"/>
	
		<linearGradient id="SVGID_6_" gradientUnits="userSpaceOnUse" x1="166.27" y1="72.0043" x2="143.6104" y2="-260.6008" gradientTransform="matrix(1 0 0 -1 0 117)">
		<stop  offset="0" style="stop-color:#8B7198"/>
		<stop  offset="1" style="stop-color:#28203F"/>
	</linearGradient>
	<path class="st7" d="M168.6,145.4c-4.5,3.1-8.5,10-10.7,1.1c-6.1-3.1-17.1-1.9-14.8-14.2c-7.5,5.1-2.5,4.8-9.5,8.1
		c0.2-6.4-1.5-0.4-2,2.4c-6.5-4.4-4.1,3-11.5-7.6c-7.1-8.9-12.9-12-23-14.6c-1.1-17.9-3.7-10.5-6.2-0.9c-5.6,4.1-8.4-8.4-10.1-14.7
		c-2.5,8.2-3.9,19.4-6.9,4.9c-4.5-10.1-5.3-5.6-4.9-23.9c-1.7,7.6-3.6,28.8-5.7,10.4c-1.5,17.1-3.7,6.3-8.7,11.7
		C35,105.2,20.3,91.2,0,86.6v138.8l32.5,60.2l153,5.2l132.8-78.6c-14.9-0.9-25.2-14.4-38.2-21.6l0,0c-21.5-10.7-46.8-10.7-69.1-18.8
		c-11.2-12.9-28.2-15.7-36.9-13.2"/>
	<g>
		
			<linearGradient id="SVGID_7_" gradientUnits="userSpaceOnUse" x1="0" y1="-109.8241" x2="309.0187" y2="-109.8241" gradientTransform="matrix(1 0 0 -1 0 117)">
			<stop  offset="0" style="stop-color:#433D6C"/>
			<stop  offset="1" style="stop-color:#392E54"/>
		</linearGradient>
		<path class="st8" d="M299.3,240.1c-27.5-16-80.8-39.5-80.3-65.9c-2.8,11.3-6.1,25.4-10.2,9.6c-0.2-0.6-0.8-1-1.4-0.7
			c0,0-0.1,0-0.1,0c-0.7,0.4-1.5-0.1-1.6-0.9c-1.2-24.9-4.8,20.9-8.3-4c0-0.1-0.1-0.1-0.1-0.1c-5,0.2-4.7-32.4-7.9-23.1
			c-2,26.3-2.3-2.2-3.7,20.7c0,0,0,0,0,0c-0.1,1.3-2,1.2-2.1-0.1c-0.6-10.6-2.8-10.6-2.4-1.7c0,0,0,0,0,0c-3,19.6-5.9-19.4-6.9,10.9
			c-7.5-2.5-11.2,0.8-11.2-15.3c-4.1,24.4-7.4-2.7-10.8-13.5c-1.8,7.6-2.8,15.6-5.6,3.5c-2.3,10.8-4.7,2.1-8.2,9.2
			c-2.3-10.7-1.7,0.2-6.4,1.4c-5.4-7.6-0.7-26-6.1-4.4c-1.6,4.3-2.9-2.6-3.4-4.3c-8.2,7-6.9-4.2-9.6-9.8c0,2.9-0.5,5.8-1.4,8.5
			C70.4,126.7,37.9,171.8,0,183.9c0,0,0,121.7,0,121.7C-1.9,292,373.5,286.8,299.3,240.1L299.3,240.1z"/>
	</g>
	<g>
		
			<linearGradient id="SVGID_8_" gradientUnits="userSpaceOnUse" x1="239.7073" y1="-68.861" x2="725.3574" y2="-68.861" gradientTransform="matrix(1 0 0 -1 0 117)">
			<stop  offset="0" style="stop-color:#433D6C"/>
			<stop  offset="1" style="stop-color:#392E54"/>
		</linearGradient>
		<path class="st9" d="M717.8,169.9c-26.8-14.1-78.2-30.9-80.3-56.3c-4.2,18.7-10.4,16.5-14.6-1.6c-3.9,24.3-13-2.6-12.8-19
			c-5.5,13.9-4.6,18.8-5.9,21.9c-2.3,6.7-2.4-3.5-2.6-6c-0.9,14-3.1,22.8-4.7,3.4c2.2,17.5-15.4,13.9-15.3-2.6
			c-1.8,4.7-1,13.7-5.3,5.4c-5,7.1-0.8-17.1-5.6-16.8c-2,6.5-2.6,13.4-5.6,3c-2.2,0.3-0.3,5.1-2.5,5.4
			c-14.3-2.4-12.3,14.7-15.5-10.5c-1.3,4.6-3.1,17.9-6,6.8c-62.4-23.3-54.6-6.1-126.2,19.4c-41.3,4.8-18.8-24.1-27.8-12.7
			c-5.3,16.2-5.6,6.2-16.1,19.3c-3-14.5-3.8,4.6-9.8,6c-0.4-19.2-13.8,30.1-17,4.7c-0.5,8-5.2,18.2-8.8,5.8c-0.9,15.4-4.5,9-5.6,0.2
			c0.9,5.9-2.8,25.2-8.2,11.3c-1,5.5,0.2,6.1-5.1,6.6c-3.4,2.2-1.6-7.4-3.9-4.4l-3.1,4.4c-1.5-3-0.5-10.4-4-7.4
			c1.5,21.6-26.9,39.9-65.8,48.3c2.1,1.9,69.8,80.8,65.3,74.9C307.9,264.4,791,208.1,717.8,169.9L717.8,169.9z"/>
	</g>
	<g>
		
			<linearGradient id="SVGID_9_" gradientUnits="userSpaceOnUse" x1="499.3253" y1="21.688" x2="498.3684" y2="-231.0882" gradientTransform="matrix(1 0 0 -1 0 117)">
			<stop  offset="0" style="stop-color:#8B7198"/>
			<stop  offset="1" style="stop-color:#28203F"/>
		</linearGradient>
		<path class="st10" d="M245.7,291.8c21.2-12.3,33.1,17,54.3,4.7c28.6-16.5,57.1-33,85.7-49.5c7.9-4.6,16-9.2,25-11.2
			c7.2-1.5,14.7-1.3,21.9-2.9c15.1-3.5,26.8-15.1,40.1-23.1c15.8-9.5,34.6-13.9,53-12.5c10.4,0.8,22.9,2.7,29.6-5.4
			c2.3-2.8,3.5-6.4,5.5-9.4c13.3-19.1,49.2,0.3,64.7-17c6.9-7.7,9.1-22,19.5-22.6c3.9-0.2,7.9,2,11.7,0.9c5.5-1.6,6.9-8.4,10-13.2
			c6.9-10.8,22.2-10.7,34.4-14.6c13.5-4.3,24.4-14.4,37.2-20.6s13.9-5.6,13.9-2.1c-0.8,2.6-0.2,14.1-0.2,18.6l-0.7,195.6"/>
	</g>
	<g>
		
			<linearGradient id="SVGID_10_" gradientUnits="userSpaceOnUse" x1="346.5851" y1="-56.863" x2="345.6631" y2="-238.462" gradientTransform="matrix(1 0 0 -1 0 117)">
			<stop  offset="0" style="stop-color:#433D6C"/>
			<stop  offset="1" style="stop-color:#06040F"/>
		</linearGradient>
		<path class="st11" d="M-1,310.5h694.6c-14.8-13.8-37.1-16.5-57.6-16.1c-20.5,0.5-41.5,3.4-61.3-1.7c-12.8-3.3-24.4-9.9-36.5-15
			c-25.5-10.8-53.3-15.4-80.7-20c-17.2-2.8-34.5-5.7-51.7-8.5c-6.6-1.1-13.3-2.2-19.2-5.2c-6.9-3.5-12.2-9.4-17.9-14.6
			c-17.8-16.4-44.4-27.8-67-18.4c-13,5.4-25.4,17.4-38.9,13.4c-3-0.9-6.1-2.6-9.1-1.7c-2.9,0.9-4.5,3.9-7.3,5
			c-5.4,2.1-10.5-3.8-16.2-4.6c-10.2-1.4-15.6,12.7-25.5,15.3c-6.7,1.7-13.8-2.2-20.5-0.7c-6.5,1.4-10.9,7.5-17.1,9.9
			c-12.9,5-25.6-7.1-33.9-17.9c-10.6-13.7-21.1-27.4-31.7-41.2c-5.8-7.5-12-15.4-21-19s-21.4-0.8-24.6,8.1
			c-3.3-7.7-8.1-14.7-14.1-20.7c-1.9-1.9-4.2-3.8-6.9-3.9c-2.7-0.2-5.6,2.4-4.7,4.9c-9.1,2.1-14.1-13.1-23.5-12.8
			c-2.6,0.1-5.1,1.4-7.7,1.6L-1,310.5L-1,310.5z"/>
	</g>
	<g>
		
			<linearGradient id="SVGID_11_" gradientUnits="userSpaceOnUse" x1="607.8898" y1="2.4558" x2="589.6415" y2="-265.4128" gradientTransform="matrix(1 0 0 -1 0 117)">
			<stop  offset="0" style="stop-color:#433D6C"/>
			<stop  offset="1" style="stop-color:#06040F"/>
		</linearGradient>
		<path class="st12" d="M583.5,231.2L583.5,231.2L583.5,231.2c-1.2-0.8-2.6-1.3-3.7,0.1c-7.9-9.2-0.5,3.3-8.1-0.4c0,0,0,0,0,0
			c-13.2,0.1-20.1,11.9-31.9,15.5c-20.6,5.4-42.9,7-62.2,16.3c-12.9,7.1-23.3,20.5-38.1,21.4c24,43.6,270.9,23,310.6,27l0,0
			c6-2.6,0.2-144.6,2.2-148.6c-6.9,4.3-15.5,2.7-22.5,5.8c-6.2,5-21.9,19.4-27.2,9.8c-1.2,6.9-5,1.1-4.7-3.4
			c-0.8,13.8-3.9,1.1-3.8-5.4c-0.3,2.8-0.5,5.5-0.8,8.4c-1.6-19.9-4.4-20.3-4.2-3.5c0,0.8-1.1,1.1-1.4,0.3c0,0,0,0,0-0.1
			c-0.3-0.6-1.3-0.5-1.4,0.2c-1.5,6.5-2.9,10.1-5.8,16.7c-1.3-4.6-2.6-9-3.9-13.6c-0.9,3.4-1.4,6.8-1.5,10.3
			c-4.7-5.5-6.5,17.5-9.2-1.2l-1.2,3c-0.5-3.6-1.4-7.1-2.7-10.5c0.9,9.9-5.5,19.8-14.6,17.1c-3.8,3.6-16.4,24.8-18.7,13.6
			c0.2,9.1-2.6,5.9-4.9-0.4c0.6,6.5-3.2,2-4.1-1.5c0,1.1-0.1,2.3-0.1,3.4c-2.6-6.5-9.3-11.6-10.2-8.3c-0.3,0.9-0.4,1.9-1.1,2.6
			c-0.9,1,3.1,10.2,0.8,11.9c-3.6,2.5-6.9-7.8-6.6,1.2c-0.7-0.2-2-0.4-2.8,0.1c0,0,0,0,0,0c-2.2,9.1-6,1.9-10.7-1.1
			c0.1,3.8-0.6,5.7-3.7,6.9c-0.3,0.1-0.5,0.4-0.5,0.7"/>
	</g>
</g>
</svg>
