<svg version="1.0" xmlns="http://www.w3.org/2000/svg" width="1706.667" height="554.667" viewBox="0 0 1280 416"><path d="M463.5 3.8c-1.5 2.7-5.1 5.8-13.5 11.4-6.3 4.3-13 9.4-14.8 11.5-4.9 5.5-7.9 18.1-5.3 22.1 1 1.7 8.5-1.9 17.7-8.4 8.8-6.2 11.6-9.9 14.8-19.3 2.3-7.2 4.7-21.1 3.5-21.1-.2 0-1.3 1.7-2.4 3.8zM814.5 5.9c.7 7.4 4.6 20.1 7.4 24.8 2.7 4.3 11.4 11 21 16.1 7.6 4.1 7.9 4.4 11 11.1 1.7 3.8 4.4 11.3 5.8 16.7 2.5 9.2 2.7 11.4 2.7 30.9.1 25.7-1.2 33.3-9.9 56-2.2 5.8 3.3-3.9 7-12.4 11-24.9 12.9-47.1 5.9-69.3-2.6-8.2-8.3-20.4-12.3-26.3-1.6-2.3-2.1-4.6-2.1-9.5 0-7.7-3-14.9-8.1-19.6-1.9-1.7-8-6.1-13.6-9.8-7.3-4.8-10.9-7.8-12.8-10.9l-2.7-4.2.7 6.4zM389.9 11c1.7 2.4 3.6 6.9 4.5 11.3 1 3.9 2.4 10.1 3.2 13.7 2 8.3 5.5 14.3 10.6 18 3.9 2.9 11.5 5.7 12.5 4.7.8-.9-1.8-17.3-3.9-24.2-1.9-6.2-3-7.8-9.2-14-5.8-5.7-17.3-13.5-20-13.5-.3 0 .7 1.8 2.3 4zM889.3 8.5c-9.9 4.3-21 14.4-24.5 22.1-3.1 7.1-6.4 28.4-4.3 28.4.2 0 2.8-.9 5.8-2 10.1-3.8 15.2-11.5 18.2-27.4 1.8-10 4.5-17.9 7.1-20.7 2-2.2 1.9-2.3-2.3-.4zM468.7 47.1c-2.6.4-8.2 2.6-12.5 5-4.2 2.3-10.4 5.7-13.7 7.5-3.7 2.1-7.4 3.4-9.7 3.4-8.4 0-1.8 3.3 12.2 6.1 9.3 1.8 17.6.9 25.1-2.9 6.2-3 18.1-11.4 18.7-13 .4-1.2-6.8-5-11.3-5.9-2.2-.5-6.1-.6-8.8-.2z"/><path d="M802.6 47.1c-3.9.9-11.6 4.8-11.6 5.8.1 1.8 16.8 12.6 23.8 15.4 7.4 3 23.8 1.6 33.8-2.9l3.9-1.7-5.2-.7c-3.8-.6-8.4-2.6-16.6-7.3-9.2-5.4-20.9-10.1-23.7-9.6-.3.1-2.2.5-4.4 1zM422.6 64c-13.1 29.2-14.5 60.8-3.7 88.5 8 20.7 19.5 36 49.5 65.9 20 19.9 22.6 22.8 19.6 22.1-1.9-.5-12.4-.9-23.3-1.1-15.3-.1-20.2-.5-22-1.6-1.2-.9-14.3-8.2-29.2-16.3-14.8-8.1-28.1-15.4-29.5-16.3-1.4-.9-2-1-1.4-.3 1.8 2 36.1 22.1 48.7 28.6 6.4 3.3 11.7 6.2 11.7 6.5 0 .3-3.7 1.3-8.2 2.3-4.6 1-21.8 6.4-38.3 12-16.5 5.5-34.5 11.3-40 12.9-5.8 1.6-8.1 2.5-5.5 2.2 5.8-.7 30.5-6.6 39-9.3 3.5-1.1 6.5-1.9 6.7-1.7.1.1-2 1.9-4.7 4-7.7 5.9-21.2 20.7-27.4 29.9-18.3 27.5-22.3 53-11.6 75.1 6.5 13.4 18.8 25.3 35 33.5 14.6 7.5 25.2 10.5 41.9 12.1 25.8 2.5 49.2-4.8 63-19.5 9.9-10.6 14.2-22.8 14-39.5l-.2-9.5-.8 7.9c-1.9 18.3-9.5 32.5-22.8 42.9-26.3 20.7-63.7 20.9-94.2.5-14.5-9.7-24.8-22.7-30.7-39-2.4-6.6-2.7-8.6-2.7-21.3 0-12.7.3-14.7 2.7-21.3 7.8-21.6 27-42.8 48.8-54.1 4.1-2.1 8.5-4.2 9.8-4.6 2.1-.6 2-.3-1.3 5.2-4.8 8-12.1 25.5-14.1 33.9-2.3 9.8-1.4 19.3 3 33.1 3.7 11.2 10.5 26.1 12.9 28.1 1 .9 1.3-.7 1.3-8.1-.1-8.9.1-9.7 5.3-22.2 9.9-23.8 11.3-28.3 11.8-38.1.8-12.7-2.5-22-10.6-30.7-3.2-3.4-2.5-4 7.4-6.2 44.6-10.3 101.8 7.3 162.4 50 10.6 7.5 28.1 21.2 35.6 27.9l4 3.5-4.5 4.3c-2.5 2.4-9.9 8.9-16.6 14.5-18.1 15.3-32.2 30.8-30 33 .9.9 8.9-3.5 16.1-8.9 3.8-2.9 14.5-12.7 23.7-21.7l16.8-16.3 15.7 15.2c8.7 8.4 19.1 17.9 23.2 21.1 7.2 5.9 16.4 11.3 18.2 10.7 1.5-.5-4.7-8.9-12.8-17.2-4.3-4.3-14.7-13.7-23.1-20.9-8.4-7.1-15.2-13.3-15-13.7.5-1.2 13.4-12 25.9-21.7 40.7-31.4 84.3-53.4 121.9-61.4 19.1-4.1 49-3 62.8 2.2 2.4.9 2.3.9-1.7 5.6-6.5 7.3-10.3 16-10.9 24.6-.6 9.8 1.8 19 10.4 39.8 6.6 15.9 6.8 16.7 7.1 25.9.1 5.2.2 9.7.3 10 .2 1.3 6.1-9.5 9.2-17 12.7-30 12-43.3-4.2-74.7l-6.8-13.2 5.5 2.4c26.7 11.8 50.8 39.6 57.8 66.3 2 8 2.1 23.2.1 31-6.8 26.2-28 46.9-57.3 55.9-7.9 2.4-10.4 2.7-23.8 2.7-17.2 0-23.6-1.3-35-7.2-13.4-6.9-23.8-20.5-28.1-36.7-2.9-11.3-2.9-29.6.1-45.5.3-1.4-.2-.6-.9 1.7-4.1 12-4 32.6 0 46.4 4.6 15.6 17.4 31.3 31.1 38.3 12.7 6.4 20.7 8.1 37.3 8 17.6-.1 29.1-2.7 44-10 8-3.9 10.9-6.1 18-13.3 14.1-14.2 19.4-27.9 19.3-49.6-.1-9.6-.6-14-2.7-22-5.2-19.9-16.9-39.2-32.8-53.9-4.5-4.2-7.9-7.6-7.7-7.6.3 0 6.5 2 13.9 4.5 29.7 10.1 45.5 13.5 61.9 13.5h9.4l-2.1 2.3c-2.9 3.1-4.9 9.2-6.3 19.4-2.1 15.6.2 23.2 8.7 29.1 3 2 5.4 4.4 5.4 5.4 0 .9 1.3 2.1 3 2.7 1.7.5 3 1.6 3 2.4 0 1.6 2.1 2.7 5.1 2.7 1 0 1.9.4 1.9 1 0 .5 1.8 1 4 1 3.3 0 4 .3 4 1.9 0 1.3.9 2.1 3 2.6 2.3.5 3 1.2 3 3 0 2.4 3.1 5.1 4.4 3.8.3-.3.3-1.6 0-2.7-.3-1.2-.1-3.4.5-4.9.8-2 .7-3-.3-4-1.7-1.7-1.8-2.8-1.3-23.5.2-9.9 0-13.6-1-14.4-.7-.6-1.3-2.1-1.3-3.3 0-1.2-.6-2.8-1.4-3.4-.8-.7-1.7-2.2-2-3.4-.3-1.5-2.7-3.3-7.3-5.6-3.7-1.8-9.2-5.1-12.1-7.4-6.5-4.9-6.8-4.7 11.2-7.2 15.3-2.1 43-1.7 58.6.9 10.5 1.8 30.4 5.7 30.8 6 .1.2-1.2 3.1-3 6.6-2.5 4.7-3.3 7.8-3.6 12.9-.4 6.9.4 10 8.8 33.5 2.3 6.4 3.2 10.6 3.1 14.8 0 3.7.3 5.7.9 5.3 1.7-1.1 8.6-15.6 10.8-22.5 4.3-14 3.4-22.6-4.2-40.2-2.2-5-2.9-7.8-2.2-7.8.7 0 8.4 1.6 17.2 3.6 47.9 10.7 71.6 12.4 89.6 6.3 6.6-2.2 15.2-7 20.3-11.4 1.8-1.5.3-.9-3.4 1.5-18.1 11.4-43.2 13.4-79.6 6.4-19-3.7-46.7-10.3-48.2-11.5-.6-.6-1.6-.8-2.1-.5-.5.3-7.4-.8-15.3-2.4-20.8-4.3-40-6.3-54.8-5.8l-12.4.5 5.9-2.8c6.4-3 6.8-3.8.7-1.4-11.1 4.2-16.5 5-35.8 5-25.3-.1-37-2.4-87-17.6-24.3-7.4-45-12.9-48.4-12.9-1.2 0-2.1-.3-2.1-.8 0-.4 5.5-3.5 12.3-6.9 12.5-6.4 48.1-27.3 50.1-29.4.6-.7-.5-.3-2.4.8-9.8 5.7-18.5 10.5-27.5 15.3-5.5 2.9-15.6 8.5-22.4 12.3l-12.5 7-17 .2c-9.4.1-19.5.7-22.5 1.4-3 .6-5.6.9-5.8.7-.3-.2 4-5.1 9.3-10.8 15.7-16.5 16.1-17.6.9-2.2-13.4 13.7-14.2 14.3-19.5 15.5-12.1 2.5-33.3 10.4-48.7 17.9-24.2 12-52.5 31.5-78.4 54.1-5.2 4.5-10.2 8.9-11.1 9.7-1.5 1.3-2.8.5-12.6-7.9-33.5-28.9-66.6-50.7-91.3-60.4-6.8-2.6-17.3-6.7-23.3-9.1C498.4 242 489 236 478 225c-25.9-25.9-48-59.2-56.4-85.1-7.8-24.4-7.1-52.8 1.9-75 3.3-8.1 2.6-8.7-.9-.9zm549.1 223.2c-.3.7-.5.2-.5-1.2s.2-1.9.5-1.3c.2.7.2 1.9 0 2.5zm12.8 26.8c3.7 6.9 7.5 13.5 8.3 14.7.8 1.3 1.2 2.3.9 2.3-2.2 0-19.9-33-21.2-39.5-.4-1.7.7-.1 2.3 3.5 1.5 3.6 5.9 12.1 9.7 19zM274 80.3c0 2.4.4 4.7.9 5.2 1 1 1.7 5.9 2.6 17.6.3 3.7 1.2 8.2 1.9 10 1.8 4.1 6.1 8.9 8.1 8.9.7 0 4.9 1.9 9.4 4.2 7.1 3.7 8.2 4 9.7 2.7 3.1-2.5 4.4-7.5 4.4-16.6-.1-11.5-1.9-15.9-8.4-19.3-2.5-1.4-4.6-3-4.6-3.6 0-.7-1.1-1.5-2.5-1.8-1.4-.4-2.5-1.1-2.5-1.6 0-.6-1.1-1-2.5-1s-2.5-.5-2.5-1c0-.6-1.1-.8-2.5-.4-1.8.4-2.7.1-3.1-1-.3-.9-1.7-1.6-3.1-1.6-1.4 0-2.2-.4-1.8-1 .7-1.2-1.2-4-2.6-4-.5 0-.9 1.9-.9 4.3zm20.7 23.2c4 5.4 9.9 15.5 7.6 13-1-1-12.5-17.7-15.2-21.8-2-3.2 2 1.4 7.6 8.8zM1004.3 76.7c-.7.2-1.3 1.3-1.3 2.4 0 1.2-.7 1.9-2 1.9-1 0-2.3.7-2.8 1.6-.6 1.1-1.7 1.5-3.1 1.1-1.1-.3-2.4-.1-2.7.4-.3.5-1.6.9-2.9.9-1.2 0-2.5.7-2.9 1.5-.3.8-1.5 1.5-2.6 1.5s-2 .6-2 1.2c0 .7-2 2.5-4.5 4-6.5 3.9-8 7.4-8 18.8 0 10.2 1.4 15.3 4.7 17.1 1.4.8 3 .4 7.1-1.9 2.9-1.6 7.3-3.7 9.9-4.7 6.5-2.4 10.8-8.8 11.5-17 1.4-16.9 1.6-18.6 2.7-20.4 1-1.5 1.5-9.1.7-9-.3 0-1.2.3-1.8.6zm-11.6 19c-.8 1-4.7 6.5-8.6 12.2-8 11.8-9.7 12.6-2.3 1.1 4.7-7.3 10.8-15 12-15 .3 0-.2.8-1.1 1.7zM362.6 87c-2.1.4-4.1 1.1-4.5 1.7-.7 1-4.4 2.5-11.1 4.3-2.5.6-5.2 1.6-6.1 2-.9.5-2.6.6-3.7.3-1.1-.2-2.3 0-2.6.6-.4.6-1.7 1.1-2.9 1.1s-2.8.9-3.5 2c-.7 1.1-1.7 2-2.3 2-2.5 0-6 5.4-7.4 11.3-.8 3.4-2.4 8.8-3.5 11.9-1.1 3.1-1.8 6.3-1.5 7 .8 2.1 4.2 3.8 8.9 4.4 4.8.7 19.3-1.9 23.7-4.1 3.8-2 7.7-7 8.9-11.4.6-2.2 1.7-4.2 2.5-4.5.8-.3 1.5-1.6 1.5-3 0-1.3.5-2.6 1.1-2.8.5-.2 1.1-3.2 1.3-6.8.1-3.9.7-6.5 1.4-6.8.7-.2 1-1.3.6-2.7-.5-1.9-.1-2.4 1.8-2.7 1.5-.2 2.4-1.1 2.6-2.6.2-1.2 0-2.1-.5-2.1-.4.1-2.5.5-4.7.9zm-23.2 28.8c-5.5 5.4-11.6 10.5-13.5 11.5l-3.4 1.8 3-2.3c4.1-3.1 16.4-14.6 19.9-18.6 1.6-1.8 3.1-3 3.5-2.6.3.3-3.9 4.9-9.5 10.2zM912.6 86.8c-.9.8 1.4 4.2 2.9 4.2.9 0 1.5 1 1.5 2.4s.5 2.8 1.1 3.2c.6.4.8 2 .5 3.9-.4 1.9-.3 3.6.2 3.9.5.3.7 1.7.4 3.1-.2 1.5 0 2.5.7 2.5.6 0 1.1 1.1 1.1 2.5s.8 2.9 2 3.5c1.1.6 2 1.7 2 2.6 0 2.7 3.9 9.2 6.7 11.2 8.6 6 27.8 7.8 33.6 3.2 2-1.6 2.1-2.1 1-5.6-.7-2.2-2.3-7.8-3.6-12.5-2.3-8.1-5.9-13.9-8.5-13.9-.6 0-1.6-.9-2.2-2-.6-1.1-2.1-2-3.5-2-1.3 0-2.7-.5-3-1.1-.4-.6-1.3-.8-2-.5-.8.3-3.7-.4-6.6-1.4-2.8-1.1-5.6-1.7-6-1.4-.5.3-2.8-.6-5.1-1.9-4.5-2.5-12.3-4.8-13.2-3.9zm39.4 37.6c3.5 3 3.8 3.4 1.2 1.9-4.6-2.8-16.4-13.5-20.3-18.5-2.2-2.9-.4-1.6 5.7 4.2 4.9 4.7 10.9 10.3 13.4 12.4zM267.4 127.4c-1.6.4-3.6 1.2-4.4 1.7-.8.5-2.5 1.3-3.6 1.8-1.2.5-2.4 1.7-2.7 2.5-.4.9-1.2 1.6-1.9 1.6-.8 0-2.1.8-3 1.7-3.6 3.7-5.4 5.1-7.5 5.7-1.3.4-2.3 1.2-2.3 1.8 0 .5-.7.7-1.6.4-1.7-.6-9.6 5.3-8.8 6.6.8 1.3 5.2.9 5.7-.5.3-.9.9-.7 2.4.5 1.1 1 2.7 1.8 3.6 1.8.9 0 2.2.9 2.9 2 .7 1.1 1.8 2 2.4 2 .6 0 1.7.7 2.4 1.5.7.9 2 1.3 2.7 1 .8-.2 2.4 0 3.6.7 1.2.6 3.5 1.2 5.2 1.3 1.6.2 5.2.9 7.9 1.6 4.6 1.2 5.1 1.2 10.5-1.6 7.9-4.1 18.7-15 19.6-19.9.9-4.7-1-7-7.2-8.5-2.5-.7-6.9-2.4-9.7-3.8-5.3-2.8-11-3.5-16.2-1.9zm20.4 17.1c-1.2 1.2-16.4 3.5-22.1 3.4l-6.2-.2 7.5-.8c4.1-.4 10-1.2 13-1.7 6.9-1.2 8.5-1.3 7.8-.7zM999.1 128.1c-1.6 1-6.4 3-10.6 4.5-9.6 3.4-10.7 5.2-7.5 11.8 2.5 5.3 9.8 12.2 17.4 16.6 6.1 3.4 8.9 3.7 14.6 1.4 2.2-.9 4.9-1.4 5.9-1.1 1.1.3 2.9-.1 4-.9 1-.8 2.6-1.2 3.4-.9.7.3 2-.1 2.7-1 .7-.8 1.9-1.5 2.6-1.5.7 0 2.1-1.1 3-2.4.9-1.5 2.1-2.3 3-1.9.8.3 2.3-.2 3.3-1.1 1.6-1.5 2-1.5 3.1-.1.9 1.1 1.7 1.2 3.3.4 1.9-1.1 1.8-1.3-1.9-4.4-2.1-1.8-4.2-3.1-4.6-2.8-.9.5-11-6-12.8-8.2-.7-.8-1.8-1.5-2.6-1.5-.7 0-1.8-.9-2.4-2-.6-1.1-1.7-2-2.6-2-.8 0-1.7-.7-2-1.5-.4-.8-1.8-1.5-3.3-1.5-1.5 0-3.1-.3-3.5-.8-1.5-1.5-9.5-.9-12.5.9zm6.4 17.8c4.4.6 9.6 1.3 11.5 1.5 1.9.3-.8.3-6 0-5.2-.2-11.5-1-14-1.9-2.5-.8-3.4-1.3-2-1.1 1.4.3 6.1.9 10.5 1.5zM309.7 139.2c.5.7 3.8 5.1 7.3 9.8 8.8 11.8 15 18.9 17.4 20.2 1.3.7.5-.7-1.9-3.3-2.2-2.4-8.2-9.7-13.4-16.2-5.1-6.4-9.5-11.7-9.8-11.7-.3 0-.1.6.4 1.2zM957.6 154.3c-7.1 8.9-11.2 14.6-9.2 12.7 5.2-4.9 23.9-29 22.5-29-.2 0-6.2 7.3-13.3 16.3zM166.5 159.7c.4 1 1 4 1.3 6.6.3 3.3 1.1 5.2 2.3 6 1.1.7 1.9 2 1.9 3s.5 2.8 1.1 3.9c.6 1.1 1.2 3.3 1.4 4.7.1 1.4.8 4.8 1.5 7.6.6 2.7 1.3 6.7 1.4 8.7.1 2 .8 4.4 1.5 5.2.7.8 1 2.4.6 3.5-.4 1.4.1 2.4 1.9 3.6 1.4.9 2.8 2.6 3.2 3.8.4 1.2 2.4 3.8 4.5 5.8 3 2.9 5.3 4 9.7 4.9 3.1.7 9.7 2.8 14.7 4.7 4.9 1.9 10.3 3.3 11.9 3.1 7-.7 9.4-14.3 5.8-31.8-3.5-16.9-6.2-20.6-18.4-25.2-4.2-1.5-5.8-2.6-5.8-3.9 0-1.4-.7-1.9-3-1.9-1.7 0-3.9-.9-5.1-2.1-1.5-1.5-2.9-2-5-1.5-1.5.3-3.1.1-3.5-.5-.4-.7-2.3-.8-4.9-.5-3.3.5-4.4.3-4.8-.9-.4-.9-1.9-1.5-4.2-1.5-3.1 0-3.5-.3-3.5-2.5 0-2.5-2.5-4.5-5.5-4.5-1.2 0-1.5.5-1 1.7zm41.8 40.8c7.1 8.1 10.9 13.1 14 18.6 4 6.9 3.2 7-1.1.3-4.7-7.2-13.4-17.5-26.2-30.9l-9.5-9.9 8.8 7.9c4.8 4.4 11.1 10.7 14 14z"/><path d="M1109.8 159.1c-1 .5-1.8 2.1-1.8 3.4 0 2.2-.4 2.5-3.9 2.5-2.6 0-4.1.5-4.5 1.6-.5 1.2-1.5 1.4-5 .9-2.6-.4-4.6-.3-5 .3-.4.6-2.2.8-4.1.5-2.7-.4-3.5-.2-3.5 1 0 1.7-2.1 2.7-5.7 2.7-1.6 0-2.7.7-3 1.9-.3 1.2-2.6 2.7-6.4 4-10.5 3.9-13.7 7.8-16.9 20.9-4.2 17.4-3.5 29.9 2.1 34.6 3.3 2.8 4.1 2.7 14.7-1.8 3.4-1.4 9.3-3.3 13-4.2 9.6-2.2 10.2-2.4 10.2-3.9 0-.7 1.4-2.3 3-3.5 1.7-1.2 3-3 3-4s1.2-2.5 2.6-3.5c1.9-1.2 2.4-2.2 2-4-.4-1.4 0-2.8 1-3.6 1.1-.9 1.4-2.2 1-4.2-.3-1.7-.1-3.6.6-4.4.6-.8 1.3-2.6 1.4-4.1.7-7 1.8-11.9 3.1-13.9.8-1.2 1.2-2.7.9-3.2-.4-.5.2-1.6 1.2-2.3 1.2-.8 2.1-3.1 2.5-5.8.3-2.5.9-5.5 1.3-6.8.7-2.4-.8-2.9-3.8-1.1zm-26.9 32c-12.2 13-21.3 24-24.5 29.5-1.4 2.4-2.8 4.4-3 4.4-.8 0 3.9-8.5 7.4-13.5 3.2-4.4 28-30.5 29-30.5.2 0-3.8 4.5-8.9 10.1zM841.3 180.2c-2.8 4-6.5 9.3-8.3 11.8-2.5 3.5-2.6 3.8-.5 1.5 5.6-6.3 15.5-20.5 14.3-20.5-.2 0-2.7 3.3-5.5 7.2zM.5 213.7c.4 1 1 3.1 1.3 4.8.2 1.6 1 3.7 1.7 4.5 1.9 2.4 4.5 10.8 6.1 20 1.4 7.9 1.8 9.1 3.5 10.1 1.1.5 1.9 1.4 1.9 2 0 2.3 6.4 7 10.9 8 2.5.5 8.1 2.2 12.3 3.7l7.7 2.7 2.1-2.1c4.1-4.1 4.5-15.4 1.1-27.2-2.2-7.4-8.6-14.2-13.3-14.2-1 0-2.7-.9-3.8-2-1.1-1.1-2.8-2-3.9-2-1 0-2.4-.7-3.1-1.6-.7-.8-2.3-1.4-3.4-1.2-1.2.1-2.6-.1-3.3-.5-.6-.4-2.3-.3-3.8.3-2 .8-2.7.7-3.1-.5-.4-.8-1.7-1.5-3-1.5-1.4 0-2.4-.6-2.4-1.5 0-1.5-2.9-3.5-5-3.5-.8 0-.9.7-.5 1.7zm31.1 28.4c3.8 4.1 8.1 9 9.4 10.9 1.3 1.9 1.9 3 1.4 2.5-17.9-18.4-25.1-26.3-21.9-23.8 2.2 1.7 7.2 6.4 11.1 10.4zM1276.8 212.7c-1 .2-1.8 1.3-1.8 2.4 0 1.4-.7 1.9-2.9 1.9-1.6 0-3.1.6-3.5 1.5-.4 1.2-1.1 1.3-3.1.5-1.5-.6-3.2-.7-3.8-.3-.7.4-2.2.6-3.5.4-1.3-.1-2.5.4-2.8 1.3-.4 1-1.8 1.6-3.5 1.6-1.9 0-2.9.5-2.9 1.5 0 .8-.6 1.5-1.2 1.5-.7 0-3.6 1.1-6.3 2.3-4 1.9-5.6 3.4-7.7 7.3-5.3 9.9-6.5 28.2-2 32.6l2.2 2.2 8.2-2.6c4.6-1.5 10.3-3.2 12.7-3.8 4.5-1.2 10.1-5.5 10.1-7.7 0-.7.9-1.7 2-2.3 1.1-.6 2-2.1 2-3.5 0-1.3.5-2.7 1-3 .6-.3.7-1.7.4-3-.3-1.2-.1-2.6.5-2.9.6-.4 1.1-2 1.1-3.6s.5-3.2 1-3.5c.6-.4.8-1.5.5-2.5-.3-1-.1-2.1.5-2.5.5-.3 1-1.4 1-2.4s.6-2.4 1.4-3c.8-.7 1.7-2.8 2.1-4.7.3-2 .9-4.2 1.2-5 .5-1.4.1-1.5-2.9-.7zm-22.4 25.5c-5.5 5.7-11.9 12.5-14.3 15.3l-4.3 5 3.2-5c2.9-4.5 23.4-25.5 24.8-25.5.3 0-3.9 4.6-9.4 10.2zM235.4 244.5c8.1 7.8 22.9 17.8 33.7 22.9 6.1 2.9 8.7 3.6 13.5 3.5h5.9l-8.7-2.9c-17.2-5.7-33.4-14.7-45.8-25.4-4-3.5-3.6-2.9 1.4 1.9zM226 271.1c-14.8 1.7-30.5 5-42.7 9-6.9 2.2-12.3 4.2-12.1 4.4.2.2 4.6-.7 9.8-2 5.2-1.4 9.6-2.5 9.7-2.5.1 0-1.3 3.3-3.2 7.2-1.8 4-4.5 11.3-6 16.1-2.4 7.5-2.7 10-2.2 16.5.7 10.5 6.9 27.3 12.5 34.2l2 2.5-.5-6c-.4-5.3 0-7.4 3.7-17.5 7.1-19.7 8.3-24.6 7.8-32.5-.5-7.3-3.1-13.9-7.1-18.3-1.7-1.8-1.9-2.5-.8-3.1 1.9-1.2 26.6-6 38.6-7.6 8.7-1.1 9.2-1.3 4-1.3-3.3.1-9.4.4-13.5.9zM305.8 273.1c4 .5 11.2.5 16 0 8.1-.8 7.6-.8-7.3-.8-13.8 0-15 .1-8.7.8zM56.9 278.3c3 3.4 15 11.6 21.6 15 6.7 3.3 17.9 6.7 22.3 6.7 3.3 0 3.4.1 1.9 1.8-1 1-4.6 3.6-8.2 5.7-3.6 2.1-6.5 4.3-6.5 5 0 .7-.7 1.8-1.5 2.5s-1.2 1.6-.9 2.2c.3.5.1 1.5-.5 2.2-.7.8-.9 6-.6 14.9.2 7.5.1 13.8-.3 14.1-.4.2-.6 2.5-.4 5 .4 4.1.6 4.5 2.3 3.5 1-.5 1.9-1.9 1.9-2.9 0-1.1.7-2 1.5-2s1.9-.9 2.5-2c.6-1.1 2.1-2 3.5-2 1.3 0 2.7-.5 3-1 .3-.6 1.5-1 2.6-1 1 0 1.9-.7 1.9-1.5s.7-1.5 1.5-1.5c.9 0 2-1 2.6-2.3.5-1.2 2.6-3.2 4.5-4.5 2-1.3 4.2-3.9 5-5.7 2.6-6.4 1.4-18.1-3.1-28.8-.6-1.4-.1-1.7 3.1-1.7 2.2 0 7.7-.9 12.4-2 9.4-2.2 33.3-10 32.7-10.6-.2-.2-1.9.1-3.8.6-6.4 1.9-25.2 5-36.6 6.1-23.8 2.2-46.5-3.2-61.8-14.7-3.8-2.9-4.4-3.1-2.6-1.1zm47.2 44c-3.5 7.1-9.9 18.1-8.9 15.2 1.4-3.8 12.4-25 12.6-24.4.2.5-1.5 4.6-3.7 9.2zM300 281.1c-3 2.3-8.8 5.9-12.7 8.1-4 2.2-7.3 4.5-7.3 5.2 0 .7-.9 2.1-2 3.1s-2 2.8-2 4c0 1.1-.5 2.6-1.2 3.3-1.3 1.3-1.8 10.2-.6 11.8.5.6.4 2.2 0 3.5-.5 1.3-.6 4.9-.2 7.9.8 6 .2 13.8-1.1 14.5-.6.4-.1 11.4.6 12.3.1.1 1 0 1.9-.4.9-.4 1.6-1.7 1.6-3.4 0-2.3.5-3 2.9-3.5 1.7-.3 3.1-1.4 3.4-2.6.4-1.4 1.4-1.9 4-1.9 2 0 3.8-.4 4.2-.9.3-.5 1.8-1.2 3.4-1.6 1.7-.3 3.1-1.4 3.4-2.6.3-1.1 1.4-1.9 2.6-1.9 1.3 0 2.5-.9 3-2.3.5-1.3 3.2-4 6-6 2.7-2 5.8-5.1 6.7-6.9 3.4-6.5 2.7-27-1.2-36.3-1.8-4.3-5.2-7.5-7.9-7.5-1.1 0-4.5 1.8-7.5 4.1zm4.9 18.4c-3 7.2-14.7 27.8-17.1 30-.6.5.8-2.4 3.1-6.5s7-13.1 10.4-20c6.8-13.7 8.6-15.5 3.6-3.5zM1169.7 299.1c-4.5 2.5-8.6 17.5-7.3 26.5.7 4.1 1.6 5.7 5.5 9.5 2.6 2.5 5.1 5.3 5.4 6.2.4 1 1.3 1.7 2.2 1.7.8 0 1.5.4 1.5.9 0 1.2 5.8 4.1 8.2 4.1 1 0 2.1.7 2.4 1.5.3.8 1.4 1.7 2.5 2 1 .4 1.9 1.2 1.9 2 0 .7.8 2.1 1.7 3.1 1.7 1.6 1.8 1.5 2.5-2.6.4-2.3.4-5-.1-5.9-.8-1.6-.8-17.1 0-18.7 1.2-2.4 0-10-2.2-13.4-.5-.8-1.2-2.3-1.6-3.3-.3-1-3.6-3.6-7.4-5.7-3.7-2.2-7.1-4.5-7.4-5-1.3-2.1-6-3.8-7.8-2.9zm11.3 30.4c2.3 4.4 3.4 7.1 2.5 6-2.3-2.8-11.5-21.7-11.5-23.5.1-.8 1.2 1 2.5 4 1.3 3.1 4.2 9.1 6.5 13.5zM547.3 315.9c-.7 1.1-2.6 2.2-4.4 2.6-1.9.4-3.3 1.5-3.6 2.6-.5 1.9-.6 1.9-2-.1-1.1-1.5-2.5-2-5.9-2-12.4 0-19 9.5-20.1 29.2l-.6 9.8 5.8 2.5c7.1 3.2 16.1 4.1 23.7 2.6 6.7-1.4 10.3-4 12.3-8.8 1.4-3.3 1.4-3.8-.1-5.4-1.2-1.4-1.4-2.2-.6-3.1.6-.8 1.6-4.5 2.3-8.3.6-3.9 1.7-7.3 2.3-7.7.6-.4 1.1-3.4 1.1-6.8 0-6.1 0-6.1-2.6-5.6-1.8.3-2.8-.1-3.7-1.5-1.5-2.4-2.4-2.4-3.9 0zM729 316c-.8 1.4-1.7 1.8-3.8 1.4-2.7-.5-2.7-.5-2.7 5.3 0 4.2.4 6.1 1.6 7 1.1.8 1.8 3.5 2.3 8 .4 3.7 1.2 7.3 1.8 8 .8 1 .8 2-.1 3.7-2.1 3.9.8 9.2 6.6 11.9 6.9 3.2 19.5 3.1 28.1-.2l6.2-2.3v-8.2c0-20-7.4-31.6-20.2-31.6-3.6 0-5 .5-6.1 2l-1.4 2.1-.6-2.1c-.3-1.3-1.7-2.2-3.6-2.6-1.8-.4-3.6-1.5-4.2-2.5-1.3-2.4-2.6-2.4-3.9.1zM482.6 326.2c-1 1.3-1.9 1.6-3.5 1-1.1-.4-5-.5-8.6-.2-5 .4-6.9.2-8-1-1.3-1.2-1.9-1.2-3.5-.2-1.1.6-3.3 1.2-4.9 1.2-3.5 0-4.8 1.5-3 3.6.9 1.1.8 1.8-.5 3.2-2.2 2.5-2 3.9.7 4.6 1.3.3 2.7 1.8 3.4 3.6.8 2.1 1.8 3 3.5 3 2 .1 2.1.2.6 1.1-2.4 1.4-2.3 6.3.3 11.5 3.1 6.4 10.2 9.7 21.2 9.7 9.9 0 19.4-2 20.2-4.2 1.6-4.1 1.7-15.8.1-22-2.5-9.7-6.9-15-13.4-16.2-2.5-.5-3.6-.2-4.6 1.3zM792 325c-9.3 2.2-15.8 18.7-13 33.4l1.2 6.4 6 1.2c7.6 1.7 19 1.7 24.6.1 5.7-1.6 10.6-6.7 12.1-12.6 1-4.1 1-5-.4-6.5-1.5-1.6-1.4-1.8.4-2.3 1.2-.3 2.5-1.7 3.1-3.2.6-1.5 1.9-2.9 3-3.2 2.4-.6 2.7-3.8.5-4.7-1.2-.4-1.4-1-.5-2.5 1.6-3.2 1.2-4.1-2.1-4.1-1.7 0-3.9-.5-5-1.1-1.6-.8-2.5-.7-3.7.4-1.3 1-3.4 1.2-8.5.8-3.7-.4-7.5-.2-8.4.3-1.2.6-2.1.3-3.4-1.3-.9-1.1-1.9-2.1-2.1-2-.1.1-1.9.5-3.8.9zM505.1 341.6c0 1.1.3 1.4.6.6.3-.7.2-1.6-.1-1.9-.3-.4-.6.2-.5 1.3zM511.6 367.8c-4.4 1.1-6.9 9-6.2 19.8.8 12.7 4.4 19.4 11.5 21.4 3 .8 3.8.7 4.8-.7 1.1-1.4 1.7-1.4 3.8-.5 1.4.7 5.3 1.2 8.7 1.2 4.2 0 6.7.5 7.9 1.6 1.4 1.3 2.2 1.3 3.9.4 1.3-.7 3.6-.9 5.2-.6 2.9.6 3 .5 2.4-2.4-.4-2.2-.1-3.2.9-3.6 2-.8 1.9-4.4-.1-4.4-.8 0-2.2-1.6-3-3.5-.8-2-2.1-3.8-3-4.2-1.3-.5-1.2-.7.2-1.8 1.4-1 1.6-2.1 1.1-6-1-7.1-3.5-10.6-10-13.9-4.9-2.5-7-2.9-15.4-3.2-5.4-.2-11.1 0-12.7.4zM746.6 368.1c-5.7 1.4-11.4 4.9-13.5 8.4-2.7 4.4-3.6 11.9-1.6 13.8 1.4 1.5 1.4 1.7-.5 2.7-1.1.6-2 1.9-2 3 0 1-1.2 2.8-2.7 3.9l-2.8 2.1 2.2 1.8c1.5 1.3 1.8 2.3 1.2 3.3-1.7 2.7-1 4 1.6 3.3 1.4-.3 3.9 0 5.7.7 2.7 1.1 3.2 1 4.3-.4.9-1.3 2.8-1.7 7.9-1.7 3.6 0 7.5-.5 8.6-1.2 1.5-1 2.2-.9 3.9.6 1.9 1.8 2.1 1.8 5.8 0 2.1-1.1 5.1-3.8 6.7-6.2 2.5-3.8 2.9-5.6 3.4-13.4.4-6.8.1-10.3-1.3-14.7-1.6-5.5-2-5.9-5.4-6.5-5.1-.8-16.9-.6-21.5.5z"/></svg>