<svg width="842" height="92" xmlns="http://www.w3.org/2000/svg"><path fill="none" d="M-1-1h582v402H-1z"/><g><path d="M-1-1h844v94H-1V-1z" fill="none"/><path d="M1 1.482v87h840v-87H1z" fill="none" stroke="null"/><path d="M240 21.482c-4.178-3.484-8.077-7.76-13.025-10.2-3.347-1.65-7.27-3.045-10.979-3.506-13.139-1.633-25.831 12.102-17.513 24.597 3.71 5.573 13.108 5.772 16.273-.486 1.577-3.117.383-7.022 1.244-10.405-6.737.37-8.842 3.478-9 10-11.074-3.983-3.307-17.925 6-18.525 15.9-1.026 22.698 14.773 31.68 24.625 4.413 4.841 10.975 8.006 17.32 9.383 14.528 3.153 30.066-1.315 42.729-8.515 8.034-4.567 16.118-10.845 25.271-12.968-3.726 5.08-7.653 9.794-9.405 16-3.942 13.965-.581 38.53-21.595 38.985-2.299.05-4.726.07-6.961-.543-10.447-2.867-13.01-16.025-1.039-18.442-3.387 5.29.667 9.132 6 10 .155-3.662 1.583-8.294-.862-11.467-7.146-9.274-20.607.684-18.705 10.467 4.065 20.91 39.467 19.706 42.567-1 6.297 3.542 8.902 11.18 16.039 14.171 3.906 1.636 7.784 1.844 11.961 1.828 4.078-.015 7.532-.375 10.961-2.799 7.35-5.197 12.864-17.028 5.365-24.526-4.832-4.832-15.593-5.352-17.893 2.43-1 3.384-.25 7.398-.433 10.896 7.47-.554 8.556-5.446 7-12 13.502.442 11.058 17.305-.015 20.431-16.072 4.538-29.89-11.029-29.591-26.43.119-6.192 3.003-13.53 6.272-18.716 6.222-9.87 19.374-13.23 30.334-13.284 28.113-.136 50.806 21.537 60 47-4.112-3.608-7.086-8.207-10.92-12.078-6.985-7.053-16.421-12.972-26.08-15.445-8.73-2.235-18.268-1.352-19 9.522 6.228-1.95 12.312 2.327 16-5 12.865 4.901 24.4 12.528 32.961 23.421 2.255 2.871 7.755 14.198 11.869 13.672 2.029-.259 3.269-2.878 4.245-4.382 2.396-3.696 4.789-7.103 7.813-10.322C447.165 56.932 455.596 50.016 470 45.482c2.102 7.438 8.44 3.01 14 4-1.172-10.43-10.963-10.35-18.999-8.039-15.792 4.543-25.626 14.775-36.001 27.04 6.255-25.089 31.962-46.959 58-47 13.361-.022 26.383 3.831 33.536 16.274 10.232 17.797-.982 49.212-25.521 42.001-10.198-2.997-12.503-19.59-.015-20.276.004 6.19-.221 11.176 7 12-.651-3.335.303-6.662-.343-9.91-1.818-9.152-11.506-6.353-17.657-5.09-1.688 4.432-3.404 8.083-2.814 13 1.61 13.412 15.531 18.791 27.529 15.53 9.031-2.454 12.504-10.234 19.285-15.53 2.169 7.317 7.742 13.476 15.286 15.53 10.873 2.961 26.002-1.899 27.409-14.534 1.068-9.583-13.843-21.198-19.452-9.656-1.655 3.406-.023 7.238.757 10.66 5.034-1.435 7.243-4.896 6-10 10.068 2.021 9.889 10.625 2.54 16.451-5.197 4.12-15.868 3.35-21.061-.299-9.57-6.725-8.622-18.087-9.65-28.15-.929-9.106-5.488-19.58-13.829-24.002 8.179.104 17.16 6.987 24.286 10.805 13.987 7.493 28.468 13.454 44.625 11.081 22.666-3.33 27.46-36.118 51.088-34.273 9.742.761 16.238 13.17 6.001 18.387-.198-6.114-2.961-9.025-9-10 .678 3.473-.457 7.775 1.194 10.941 2.898 5.56 11.856 5.167 15.412.526C657.474 22.68 647.412 8.27 636 7.591c-3.826-.228-7.428 1.01-10.996 2.225-6.827 2.325-10.766 7.714-17.004 10.666-1.151-12.688-17.939-19.349-26.606-8.695-3.733 4.59-1.814 10.374-1.394 15.695 8.169-3.024 7.904-6.852 5-14 2.799-.993 5.851-2.899 8.911-2.618 9.931.911 11.778 13.238 7.85 20.444-3.411 6.257-11.08 9.47-17.761 10.795-21.137 4.194-37.158-10.213-55-18.309-22.43-10.177-53.268-11.548-74.7 1.862-7.816 4.891-16.563 14.271-21.358 22.115-3.263 5.34-5.626 12.254-9.942 16.711-.706-10.524-9.712-19.68-16.623-26.887-4.266-4.449-8.235-9.463-13.551-12.764-20.8-12.919-50.738-10.425-72.401-1.639-19.009 7.71-32.484 20.996-54.425 19.197-7.574-.62-16.759-5.107-19.891-12.332-3.115-7.183-.225-18.363 8.891-19.098 3.061-.247 6.141 1.644 9 2.523-2.367 5.826-4.41 12.631 4 14 .241-5.608 2.494-12.56-2.018-17.147C256.636.836 240.79 9.736 240 21.482z" fill="#f39f18"/><path d="M331 24.482l1 1-1-1z" fill="#fff"/><path d="M10 60.482c5.463 2.292 13.113 1 19 1h40c44.745 0 89.298 2 134 2h44c5.465 0 12.866 1.793 14-5-45.288 0-90.727-1.095-136 .015-38.29.938-76.665 1.985-115 1.985m573-2v5c83.679 0 167.26-2 251-2-6.975-2.927-17.465-.914-25-1.004-17.291-.206-34.637-.996-52-.996-57.944 0-115.983-1-174-1z" fill="#f39f18"/></g></svg>