<svg xmlns="http://www.w3.org/2000/svg" viewBox="0 0 1056.3 380.3"><radialGradient id="a" cx="524.028" cy="280.861" r="389.517" gradientTransform="translate(0 -88.66)" gradientUnits="userSpaceOnUse"><stop offset="0" stop-color="#fff"/><stop offset="0" stop-color="#969"/><stop offset=".944" stop-color="#475d84"/></radialGradient><path d="M834.7 300.7c68.6-13.7 22.6-93.2-34-58-59.8 66.6 19.1 100 53.4 105.7 52.3 8.7 245.6-104.6 84.6-259.7-46.2-28.1-105.2-20.5-140 6-177.8 184.3-302.5-23.6-496-56-126.6 4.7-184.2 141.5-297-9 125.2 141.4 177.4-22.4 301-24 127.2 6.1 122.1 49.5 222 88 225.7 135.5 256-191.8 452-44 123.4 120.6 51.1 319.8-124 329-105.4.6-151.3-176-9-156 49.7 15.1 36.4 86.1-13 78z" fill="url(#a)"/></svg>