<svg xmlns="http://www.w3.org/2000/svg" xmlns:xlink="http://www.w3.org/1999/xlink" x="0px" y="0px"
	 viewBox="0 0 283 25.3" enable-background="new 0 0 283 25.3" xml:space="preserve">
<g>
	<path fill="#F5B14C" d="M142.5,7.6l4.2,4.2l-4.2,4.2l-4.2-4.2L142.5,7.6 M142.5,6.2l-5.7,5.7l5.7,5.7l5.7-5.7L142.5,6.2L142.5,6.2z
		"/>
</g>
<line stroke="#F5B14C" stroke-miterlimit="10" x1="147" y1="12.4" x2="152" y2="7.4"/>
<line stroke="#F5B14C" stroke-miterlimit="10" x1="138" y1="12.4" x2="132.5" y2="6.9"/>
<line stroke="#F5B14C" stroke-miterlimit="10" x1="152" y1="7.4" x2="239" y2="7.4"/>
<line stroke="#F5B14C" stroke-miterlimit="10" x1="46.5" y1="7.4" x2="133.5" y2="7.4"/>
<g>
	<path fill="#F5B14C" d="M245,1.7l5.7,5.7L245,13l-5.7-5.7L245,1.7 M245,0.3l-7.1,7.1l7.1,7.1l7.1-7.1L245,0.3L245,0.3z"/>
</g>
<g>
	<path fill="#F5B14C" d="M39.9,1.4l5.8,5.8L39.9,13l-5.8-5.8L39.9,1.4 M39.9,0l-7.2,7.2l7.2,7.2l7.2-7.2L39.9,0L39.9,0z"/>
</g>
<g>
	<path fill="#F5B14C" d="M255.6,4.2l3.1,3.1l-3.1,3.1l-3.1-3.1L255.6,4.2 M255.6,2.8l-4.5,4.5l4.5,4.5l4.5-4.5L255.6,2.8L255.6,2.8z
		"/>
</g>
<g>
	<path fill="#F5B14C" d="M28,3.7l3.7,3.7L28,11l-3.7-3.7L28,3.7 M28,2.3l-5.1,5.1l5.1,5.1l5-5.2L28,2.3L28,2.3z"/>
</g>
<line stroke="#F5B14C" stroke-miterlimit="10" x1="24" y1="7.4" x2="0" y2="7.4"/>
<line stroke="#F5B14C" stroke-miterlimit="10" x1="283" y1="7.4" x2="259" y2="7.4"/>
<line stroke="#F5B14C" stroke-miterlimit="10" x1="87.5" y1="12.4" x2="130.4" y2="12.4"/>
<line stroke="#F5B14C" stroke-miterlimit="10" x1="130" y1="12.4" x2="142.5" y2="24.9"/>
<line stroke="#F5B14C" stroke-miterlimit="10" x1="142.1" y1="24.9" x2="154.7" y2="12.3"/>
<line stroke="#F5B14C" stroke-miterlimit="10" x1="154.5" y1="12.4" x2="197.5" y2="12.4"/>
</svg>
